OxygenSans-Regular.ufo
<glyph name="numbersign" format="1">
  <advance width="1132.9041308"/>
  <unicode hex="0023"/>
  <outline>
    <contour>
      <point x="238.651007768" y="-22.6097785009" type="line"/>
      <point x="336.206146336" y="-22.6097785009" type="line"/>
      <point x="409.16300126" y="374.174496116" type="line"/>
      <point x="643.12943523" y="374.174496116" type="line"/>
      <point x="565.25887046" y="-22.6097785009" type="line"/>
      <point x="686.03356603" y="-22.6097785009" type="line"/>
      <point x="767.382558262" y="374.174496116" type="line"/>
      <point x="893.114108755" y="374.174496116" type="line"/>
      <point x="902.114108755" y="474.557054377" type="line"/>
      <point x="779.380642452" y="474.557054377" type="line"/>
      <point x="843.9041308" y="855.570465043" type="line"/>
      <point x="963.331749948" y="855.570465043" type="line"/>
      <point x="975.331749948" y="953.039313458" type="line"/>
      <point x="860.902214991" y="953.039313458" type="line"/>
      <point x="919.510077682" y="1328.60786269" type="line"/>
      <point x="823.172580307" y="1328.60786269" type="line"/>
      <point x="759.651007768" y="953.039313458" type="line"/>
      <point x="527.380642452" y="953.039313458" type="line"/>
      <point x="601.511993491" y="1328.60786269" type="line"/>
      <point x="477.780442998" y="1328.60786269" type="line"/>
      <point x="399.649091959" y="953.039313458" type="line"/>
      <point x="234.480343271" y="953.039313458" type="line"/>
      <point x="226.001915809" y="854.570465043" type="line"/>
      <point x="379.476511652" y="854.570465043" type="line"/>
      <point x="321.909878228" y="474.557054377" type="line"/>
      <point x="165.480343271" y="474.557054377" type="line"/>
      <point x="156.480343271" y="374.174496116" type="line"/>
      <point x="305.651007768" y="374.174496116" type="line"/>
    </contour>
    <contour>
      <point x="427.857154105" y="474.557054377" type="line"/>
      <point x="507.425703338" y="855.570465043" type="line"/>
      <point x="741.174496116" y="855.570465043" type="line"/>
      <point x="662.127519421" y="474.557054377" type="line"/>
    </contour>
  </outline>
</glyph>
<glyph name="parenleft" format="1">
  <advance width="631.555138568"/>
  <unicode hex="0028"/>
  <outline>
    <contour>
      <point x="383.125603611" y="-219.0958692" type="curve"/>
      <point x="523.463100987" y="-219.0958692" type="line"/>
      <point x="349.241628176" y="54.0824585345"/>
      <point x="287.29052068" y="352.088205963"/>
      <point x="287.29052068" y="650.305847155" type="curve" smooth="yes"/>
      <point x="287.29052068" y="932.302015536"/>
      <point x="354.673078942" y="1192.46884841"/>
      <point x="524.463100987" y="1454.35090804" type="curve"/>
      <point x="381.38638988" y="1454.35090804" type="line"/>
      <point x="226.341328994" y="1228.3902215"/>
      <point x="139.431450766" y="947.347076422"/>
      <point x="139.431450766" y="646.088205963" type="curve" smooth="yes"/>
      <point x="139.431450766" y="314.564717615"/>
      <point x="229.38638988" y="-4.57429666177"/>
    </contour>
  </outline>
</glyph>
<glyph name="parenright" format="1">
  <advance width="648.468848415"/>
  <unicode hex="0029"/>
  <outline>
    <contour>
      <point x="119.046976695" y="-219.0958692" type="curve"/>
      <point x="259.906046609" y="-219.0958692" type="line"/>
      <point x="410.51582511" y="-11.615525929"/>
      <point x="503.339413185" y="318.215725383"/>
      <point x="503.339413185" y="650.521572538" type="curve" smooth="yes"/>
      <point x="503.339413185" y="950.998084191"/>
      <point x="419.298183918" y="1221.34899223"/>
      <point x="261.123687802" y="1454.35090804" type="curve"/>
      <point x="118.568549234" y="1454.35090804" type="line"/>
      <point x="297.22530443" y="1170.82358807"/>
      <point x="355.480343271" y="930.476511652"/>
      <point x="355.480343271" y="653.696068654" type="curve" smooth="yes"/>
      <point x="355.480343271" y="350.262702079"/>
      <point x="284.401716355" y="32.4371981944"/>
    </contour>
  </outline>
</glyph>
<glyph name="asterisk" format="1">
  <advance width="1115.17641193"/>
  <unicode hex="002A"/>
  <outline>
    <contour>
      <point x="444.232049129" y="524.007663237" type="line"/>
      <point x="635.796766744" y="818.593454755" type="line"/>
      <point x="635.796766744" y="818.593454755"/>
      <point x="740.219557002" y="611.327918329"/>
      <point x="730.309678774" y="623.845659248" type="curve"/>
      <point x="789.446777241" y="660.80634579"/>
      <point x="824.416124291" y="654.884972706"/>
      <point x="883.553222759" y="691.845659248" type="curve"/>
      <point x="786.716224018" y="815.294352299"/>
      <point x="715.367231787" y="949.93769683"/>
      <point x="688.016323746" y="988.376810834" type="curve"/>
      <point x="871.679744909" y="1015.91562566" type="line"/>
      <point x="854.848493596" y="1191.85332249" type="line"/>
      <point x="541.446777241" y="1083.92811778" type="line"/>
      <point x="576.142845895" y="1286.46785114" type="line"/>
      <point x="402.069966408" y="1318.80534852" type="line"/>
      <point x="411.252125761" y="971.268449507" type="line"/>
      <point x="236.023986983" y="1061.46018791" type="line"/>
      <point x="157.560885996" y="905.081461264" type="line"/>
      <point x="467.22530443" y="816.518659458" type="line"/>
      <point x="332.106445518" y="649.337497376" type="line"/>
    </contour>
  </outline>
</glyph>
<glyph name="plus" format="1">
  <advance width="1057.17641193"/>
  <unicode hex="002B"/>
  <outline>
    <contour>
      <point x="474.092037581" y="141.088205963" type="line"/>
      <point x="579.125603611" y="141.088205963" type="line"/>
      <point x="579.125603611" y="536.003831619" type="line"/>
      <point x="933.472680034" y="536.003831619" type="line"/>
      <point x="933.472680034" y="643.951107495" type="line"/>
      <point x="580.125603611" y="643.951107495" type="line"/>
      <point x="580.125603611" y="1033.21380957" type="line"/>
      <point x="475.092037581" y="1033.21380957" type="line"/>
      <point x="475.092037581" y="643.951107495" type="line"/>
      <point x="113.092037581" y="643.951107495" type="line"/>
      <point x="113.092037581" y="536.003831619" type="line"/>
      <point x="474.092037581" y="536.003831619" type="line"/>
    </contour>
  </outline>
</glyph>
<glyph name="comma" format="1">
  <advance width="456.296268108"/>
  <unicode hex="002C"/>
  <outline>
    <contour>
      <point x="136.696068654" y="-257.394053118" type="curve"/>
      <point x="208.727718875" y="-257.394053118" type="line"/>
      <point x="270.082458535" y="-91.8101774092"/>
      <point x="294.8082616" y="12.5887045979"/>
      <point x="336.204230527" y="169.302015536" type="curve"/>
      <point x="335.29052068" y="205.821672265" type="line"/>
      <point x="172.211893764" y="205.821672265" type="line"/>
      <point x="162.602115263" y="47.6299338652"/>
      <point x="156.654839387" y="-91.0709636784"/>
    </contour>
  </outline>
</glyph>
<glyph name="period" format="1">
  <advance width="463.251207222"/>
  <unicode hex="002E"/>
  <outline>
    <contour>
      <point x="232.951107495" y="-14.0019158094" type="curve" smooth="yes"/>
      <point x="312.994252572" y="-14.0019158094"/>
      <point x="346.425703338" y="44.1275194205"/>
      <point x="346.425703338" y="99.9511074953" type="curve" smooth="yes"/>
      <point x="346.425703338" y="156.035481839"/>
      <point x="312.994252572" y="214.425703338"/>
      <point x="232.951107495" y="214.425703338" type="curve" smooth="yes"/>
      <point x="152.647176149" y="214.425703338"/>
      <point x="119.694152845" y="156.035481839"/>
      <point x="119.694152845" y="99.9511074953" type="curve" smooth="yes"/>
      <point x="119.694152845" y="44.6059468822"/>
      <point x="153.647176149" y="-14.0019158094"/>
    </contour>
  </outline>
</glyph>
<glyph name="zero" format="1">
  <advance width="1177.38255826"/>
  <unicode hex="0030"/>
  <outline>
    <contour>
      <point x="592.996168381" y="95.3374973756" type="curve" smooth="yes"/>
      <point x="402.821672265" y="95.3374973756"/>
      <point x="281.857154105" y="276.200398908"/>
      <point x="281.857154105" y="674.043145077" type="curve"/>
      <point x="280.900299181" y="1052.10161663"/>
      <point x="402.604031073" y="1241.7056477"/>
      <point x="592.996168381" y="1241.7056477" type="curve" smooth="yes"/>
      <point x="783.170664497" y="1241.7056477"/>
      <point x="895.74304535" y="1080.40937959"/>
      <point x="895.74304535" y="674.739213731" type="curve" smooth="yes"/>
      <point x="895.74304535" y="276.418040101"/>
      <point x="783.170664497" y="95.3374973756"/>
    </contour>
    <contour>
      <point x="592.996168381" y="-27.6097785009" type="curve" smooth="yes"/>
      <point x="913.208062146" y="-27.6097785009"/>
      <point x="1045.38255826" y="260.037397649"/>
      <point x="1045.38255826" y="669.217641193" type="curve" smooth="yes"/>
      <point x="1045.38255826" y="1101.13901428"/>
      <point x="896.902214991" y="1365.13135104"/>
      <point x="592.996168381" y="1365.13135104" type="curve" smooth="yes"/>
      <point x="288.872480579" y="1365.13135104"/>
      <point x="132.0" y="1100.44294562"/>
      <point x="132.0" y="669.217641193" type="curve" smooth="yes"/>
      <point x="132.0" y="260.037397649"/>
      <point x="273.045060886" y="-27.6097785009"/>
    </contour>
  </outline>
</glyph>
<glyph name="four" format="1">
  <advance width="1152.85906991"/>
  <unicode hex="0034"/>
  <outline>
    <contour>
      <point x="747.872480579" y="0.0" type="line"/>
      <point x="890.990420953" y="0.0" type="line"/>
      <point x="890.990420953" y="347.744961159" type="line"/>
      <point x="1048.33941318" y="347.744961159" type="line"/>
      <point x="1059.38255826" y="463.996168381" type="line"/>
      <point x="890.990420953" y="463.996168381" type="line"/>
      <point x="890.990420953" y="1349.30584716" type="line"/>
      <point x="740.660586815" y="1349.30584716" type="line"/>
      <point x="121.737297921" y="478.174496116" type="line"/>
      <point x="121.737297921" y="347.744961159" type="line"/>
      <point x="747.872480579" y="347.744961159" type="line"/>
    </contour>
    <contour>
      <point x="271.333665757" y="464.431450766" type="line"/>
      <point x="747.133266849" y="1159.96834978" type="line"/>
      <point x="747.133266849" y="464.431450766" type="line"/>
    </contour>
  </outline>
</glyph>
<glyph name="six" format="1">
  <advance width="1211.64717615"/>
  <unicode hex="0036"/>
  <outline>
    <contour>
      <point x="599.909878228" y="-18.0" type="curve" smooth="yes"/>
      <point x="877.909878228" y="-18.0"/>
      <point x="1044.81784065" y="168.045060886"/>
      <point x="1044.81784065" y="406.651007768" type="curve" smooth="yes"/>
      <point x="1044.81784065" y="657.390221499"/>
      <point x="868.819756456" y="837.260786269"/>
      <point x="647.562801806" y="837.260786269" type="curve" smooth="yes"/>
      <point x="562.121771992" y="837.260786269"/>
      <point x="444.720055637" y="797.25695465"/>
      <point x="376.149590594" y="760.209977955" type="curve"/>
      <point x="885.902214991" y="1349.30584716" type="line"/>
      <point x="709.61361012" y="1349.30584716" type="line"/>
      <point x="709.61361012" y="1349.30584716"/>
      <point x="525.673997481" y="1136.20323326"/>
      <point x="431.534983204" y="1021.54073063" type="curve" smooth="yes"/>
      <point x="224.131351039" y="770.309678774"/>
      <point x="160.090121772" y="642.352823851"/>
      <point x="160.090121772" y="430.87056477" type="curve" smooth="yes"/>
      <point x="160.090121772" y="189.264617888"/>
      <point x="308.692237035" y="-18.0"/>
    </contour>
    <contour>
      <point x="596.562801806" y="100.164917069" type="curve" smooth="yes"/>
      <point x="398.296268108" y="100.164917069"/>
      <point x="287.29243649" y="250.562801806"/>
      <point x="287.29243649" y="411.739213731" type="curve" smooth="yes"/>
      <point x="287.29243649" y="571.958770733"/>
      <point x="400.558970187" y="712.833167122"/>
      <point x="613.607862692" y="712.833167122" type="curve" smooth="yes"/>
      <point x="804.915625656" y="712.833167122"/>
      <point x="899.831251312" y="576.219557002"/>
      <point x="899.831251312" y="403.390221499" type="curve" smooth="yes"/>
      <point x="899.831251312" y="242.953023305"/>
      <point x="793.654839387" y="100.164917069"/>
    </contour>
  </outline>
</glyph>
<glyph name="eight" format="1">
  <advance width="1156.77086395"/>
  <unicode hex="0038"/>
  <outline>
    <contour>
      <point x="579.037397649" y="-18.0" type="curve" smooth="yes"/>
      <point x="820.862901533" y="-18.0"/>
      <point x="1015.38255826" y="99.954939114"/>
      <point x="1015.38255826" y="337.345160613" type="curve" smooth="yes"/>
      <point x="1015.38255826" y="512.433366576"/>
      <point x="906.03165022" y="651.827419693"/>
      <point x="731.8082616" y="706.478427462" type="curve"/>
      <point x="884.378726643" y="760.086290153"/>
      <point x="985.468848415" y="864.956854923"/>
      <point x="985.468848415" y="1032.43719819" type="curve" smooth="yes"/>
      <point x="985.468848415" y="1245.21764119"/>
      <point x="819.51582511" y="1368.08820596"/>
      <point x="579.51582511" y="1368.08820596" type="curve" smooth="yes"/>
      <point x="338.558970187" y="1368.08820596"/>
      <point x="170.084374344" y="1245.21764119"/>
      <point x="170.084374344" y="1032.43719819" type="curve" smooth="yes"/>
      <point x="170.084374344" y="865.652923578"/>
      <point x="280.652923578" y="751.433366576"/>
      <point x="427.874396389" y="704.260786269" type="curve"/>
      <point x="244.911794037" y="641.739213731"/>
      <point x="141.38830569" y="527.0"/>
      <point x="141.38830569" y="337.605946882" type="curve" smooth="yes"/>
      <point x="141.38830569" y="99.7372979215"/>
      <point x="338.907962419" y="-18.0"/>
    </contour>
    <contour>
      <point x="579.037397649" y="93.384474071" type="curve" smooth="yes"/>
      <point x="381.596367835" y="93.384474071"/>
      <point x="276.159169641" y="181.951107495"/>
      <point x="276.159169641" y="344.651007768" type="curve" smooth="yes"/>
      <point x="276.159169641" y="510.915625656"/>
      <point x="407.641428721" y="605.525404157"/>
      <point x="579.037397649" y="642.003831619" type="curve"/>
      <point x="751.651007768" y="605.525404157"/>
      <point x="878.437198194" y="504.001915809"/>
      <point x="878.437198194" y="344.911794037" type="curve" smooth="yes"/>
      <point x="878.437198194" y="175.298183918"/>
      <point x="781.913709847" y="93.384474071"/>
    </contour>
    <contour>
      <point x="579.037397649" y="753.562801806" type="curve"/>
      <point x="403.16300126" y="791.954939114"/>
      <point x="310.814009028" y="889.435282385"/>
      <point x="310.814009028" y="1036.61169431" type="curve" smooth="yes"/>
      <point x="310.814009028" y="1171.8763122"/>
      <point x="419.815924837" y="1254.87822801"/>
      <point x="579.037397649" y="1254.87822801" type="curve" smooth="yes"/>
      <point x="739.737297921" y="1254.87822801"/>
      <point x="844.260786269" y="1171.8763122"/>
      <point x="844.260786269" y="1036.61169431" type="curve" smooth="yes"/>
      <point x="844.260786269" y="889.435282385"/>
      <point x="756.12943523" y="791.954939114"/>
    </contour>
  </outline>
</glyph>
<glyph name="colon" format="1">
  <advance width="507.159169641"/>
  <unicode hex="003A"/>
  <outline>
    <contour>
      <point x="165.866733151" y="-25.1332668486" type="line"/>
      <point x="332.42187172" y="-25.1332668486" type="line"/>
      <point x="332.42187172" y="174.337497376" type="line"/>
      <point x="165.866733151" y="174.337497376" type="line"/>
    </contour>
    <contour>
      <point x="165.866733151" y="821.615525929" type="line"/>
      <point x="332.42187172" y="821.615525929" type="line"/>
      <point x="332.42187172" y="1021.17449612" type="line"/>
      <point x="165.866733151" y="1021.17449612" type="line"/>
    </contour>
  </outline>
</glyph>
<glyph name="semicolon" format="1">
  <advance width="497.767032333"/>
  <unicode hex="003B"/>
  <outline>
    <contour>
      <point x="139.994252572" y="-281.086290153" type="line"/>
      <point x="226.29052068" y="-281.086290153" type="line"/>
      <point x="340.072879488" y="163.729634684" type="line"/>
      <point x="191.472680034" y="163.729634684" type="line"/>
    </contour>
    <contour>
      <point x="178.170664497" y="823.180243544" type="line"/>
      <point x="344.465016796" y="823.180243544" type="line"/>
      <point x="344.465016796" y="1023.47842746" type="line"/>
      <point x="178.170664497" y="1023.47842746" type="line"/>
    </contour>
  </outline>
</glyph>
<glyph name="equal" format="1">
  <advance width="1165.69415284"/>
  <unicode hex="003D"/>
  <outline>
    <contour>
      <point x="143.305847155" y="346.697984464" type="line"/>
      <point x="1010.560886" y="346.697984464" type="line"/>
      <point x="1010.560886" y="461.819756456" type="line"/>
      <point x="143.305847155" y="461.819756456" type="line"/>
    </contour>
    <contour>
      <point x="141.827419693" y="737.658671006" type="line"/>
      <point x="1010.560886" y="737.658671006" type="line"/>
      <point x="1010.560886" y="852.909878228" type="line"/>
      <point x="141.827419693" y="852.909878228" type="line"/>
    </contour>
  </outline>
</glyph>
<glyph name="A" format="1">
  <advance width="1266.54939114"/>
  <unicode hex="0041"/>
  <outline>
    <contour>
      <point x="629.339413185" y="989.807185597" type="move" name="top"/>
    </contour>
    <contour>
      <point x="1123.24162818" y="2.60786269158" type="move" name="ogonek"/>
    </contour>
    <contour>
      <point x="46.5215725383" y="0.0" type="line"/>
      <point x="208.767032333" y="0.0" type="line"/>
      <point x="388.335581566" y="481.788106236" type="line"/>
      <point x="324.9041308" y="435.964518161" type="line"/>
      <point x="950.255038841" y="435.964518161" type="line"/>
      <point x="885.302015536" y="479.266533697" type="line"/>
      <point x="1063.73921373" y="0.0" type="line"/>
      <point x="1220.0278186" y="0.0" type="line"/>
      <point x="717.155338022" y="1349.30584716" type="line"/>
      <point x="549.915625656" y="1349.30584716" type="line"/>
    </contour>
    <contour>
      <point x="392.42187172" y="498.872480579" type="line"/>
      <point x="656.817840647" y="1255.14093009" type="line"/>
      <point x="612.078626916" y="1256.61935755" type="line"/>
      <point x="880.215725383" y="499.133266849" type="line"/>
      <point x="917.649091959" y="546.868648961" type="line"/>
      <point x="358.206146336" y="546.868648961" type="line"/>
    </contour>
  </outline>
</glyph>
<glyph name="D" format="1">
  <advance width="1451.82550388"/>
  <unicode hex="0044"/>
  <outline>
    <contour>
      <point x="711.780442998" y="997.199322906" type="move" name="top"/>
    </contour>
    <contour>
      <point x="711.780442998" y="498.969268318" type="move" name="center"/>
    </contour>
    <contour>
      <point x="358.251207222" y="67.0786269158" type="line"/>
      <point x="358.251207222" y="1281.96643397" type="line"/>
      <point x="305.035481839" y="1229.48992232" type="line"/>
      <point x="578.825503884" y="1229.48992232" type="line" smooth="yes"/>
      <point x="947.441029813" y="1229.48992232"/>
      <point x="1160.53306739" y="1077.00957905"/>
      <point x="1160.53306739" y="673.956854923" type="curve" smooth="yes"/>
      <point x="1160.53306739" y="306.77469557"/>
      <point x="975.399800546" y="121.380642452"/>
      <point x="604.086290153" y="121.380642452" type="curve" smooth="yes"/>
      <point x="305.296268108" y="121.380642452" type="line"/>
    </contour>
    <contour>
      <point x="198.874396389" y="0.0" type="line"/>
      <point x="614.480343271" y="0.0" type="line" smooth="yes"/>
      <point x="1047.87056477" y="0.0"/>
      <point x="1319.64909196" y="231.347076422"/>
      <point x="1319.64909196" y="678.217641193" type="curve" smooth="yes"/>
      <point x="1319.64909196" y="1149.219557"/>
      <point x="1021.26078627" y="1349.30584716"/>
      <point x="587.045060886" y="1349.30584716" type="curve" smooth="yes"/>
      <point x="198.874396389" y="1349.30584716" type="line"/>
    </contour>
  </outline>
</glyph>
<glyph name="G" format="1">
  <advance width="1392.219557"/>
  <unicode hex="0047"/>
  <outline>
    <contour>
      <point x="700.609778501" y="997.199322906" type="move" name="top"/>
    </contour>
    <contour>
      <point x="700.609778501" y="0.0" type="move" name="bottom"/>
    </contour>
    <contour>
      <point x="775.219557002" y="-18.0" type="curve" smooth="yes"/>
      <point x="959.697984464" y="-18.0"/>
      <point x="1105.00191581" y="12.5647176149"/>
      <point x="1242.65292358" y="65.7372979215" type="curve"/>
      <point x="1242.65292358" y="689.300099727" type="line"/>
      <point x="794.662502624" y="689.300099727" type="line"/>
      <point x="788.009579047" y="561.874396389" type="line"/>
      <point x="1147.18407516" y="561.874396389" type="line"/>
      <point x="1093.96834978" y="615.090121772" type="line"/>
      <point x="1093.96834978" y="93.2099779551" type="line"/>
      <point x="1142.39980055" y="166.508161873" type="line"/>
      <point x="1088.05272412" y="143.857154105"/>
      <point x="966.088205963" y="108.770863951"/>
      <point x="805.439114004" y="108.770863951" type="curve" smooth="yes"/>
      <point x="438.078626916" y="108.770863951"/>
      <point x="291.553222759" y="331.255038841"/>
      <point x="291.553222759" y="672.217641193" type="curve" smooth="yes"/>
      <point x="291.553222759" y="997.264617888"/>
      <point x="468.080542725" y="1244.70756351"/>
      <point x="789.217641193" y="1242.09970082" type="curve" smooth="yes"/>
      <point x="998.96643397" y="1240.79576947"/>
      <point x="1102.22530443" y="1176.48800651"/>
      <point x="1163.00383162" y="1141.79385366" type="curve"/>
      <point x="1207.65100777" y="1261.87056477" type="line"/>
      <point x="1101.82741969" y="1336.95877073"/>
      <point x="946.739213731" y="1368.08820596"/>
      <point x="790.131351039" y="1368.08820596" type="curve" smooth="yes"/>
      <point x="362.217641193" y="1368.08820596"/>
      <point x="132.176411925" y="1071.73538211"/>
      <point x="132.176411925" y="672.0" type="curve" smooth="yes"/>
      <point x="132.176411925" y="276.090121772"/>
      <point x="351.564717615" y="-18.0"/>
    </contour>
  </outline>
</glyph>
<glyph name="H" format="1">
  <advance width="1432.08437434"/>
  <unicode hex="0048"/>
  <outline>
    <contour>
      <point x="712.476511652" y="997.199322906" type="move" name="top"/>
    </contour>
    <contour>
      <point x="712.476511652" y="498.969268318" type="move" name="center"/>
    </contour>
    <contour>
      <point x="195.917541465" y="0.0" type="line"/>
      <point x="355.294352299" y="0.0" type="line"/>
      <point x="355.294352299" y="679.654839387" type="line"/>
      <point x="296.992336763" y="634.919457275" type="line"/>
      <point x="1139.30967877" y="634.919457275" type="line"/>
      <point x="1076.79002204" y="679.654839387" type="line"/>
      <point x="1076.79002204" y="0.0" type="line"/>
      <point x="1236.16683288" y="0.0" type="line"/>
      <point x="1236.16683288" y="1349.30584716" type="line"/>
      <point x="1076.79002204" y="1349.30584716" type="line"/>
      <point x="1076.79002204" y="706.12943523" type="line"/>
      <point x="1136.2665337" y="750.864817342" type="line"/>
      <point x="296.731550493" y="750.864817342" type="line"/>
      <point x="355.294352299" y="706.12943523" type="line"/>
      <point x="355.294352299" y="1349.30584716" type="line"/>
      <point x="195.917541465" y="1349.30584716" type="line"/>
    </contour>
  </outline>
</glyph>
<glyph name="I" format="1">
  <advance width="561.125603611"/>
  <unicode hex="0049"/>
  <outline>
    <contour>
      <point x="281.084374344" y="1000.89539156" type="move" name="top"/>
    </contour>
    <contour>
      <point x="478.468848415" y="10.0" type="move" name="ogonek"/>
    </contour>
    <contour>
      <point x="201.395968927" y="0.0" type="line"/>
      <point x="360.772779761" y="0.0" type="line"/>
      <point x="360.772779761" y="1349.30584716" type="line"/>
      <point x="201.395968927" y="1349.30584716" type="line"/>
    </contour>
  </outline>
</glyph>
<glyph name="K" format="1">
  <advance width="1242.03356603"/>
  <unicode hex="004B"/>
  <outline>
    <contour>
      <point x="624.255038841" y="997.199322906" type="move" name="top"/>
    </contour>
    <contour>
      <point x="624.255038841" y="0.0" type="move" name="bottom"/>
    </contour>
    <contour>
      <point x="198.874396389" y="0.0" type="line"/>
      <point x="358.251207222" y="0.0" type="line"/>
      <point x="358.251207222" y="614.219557002" type="line"/>
      <point x="312.9041308" y="513.266533697" type="line"/>
      <point x="525.206146336" y="708.788106236" type="line"/>
      <point x="454.949191686" y="713.395968927" type="line"/>
      <point x="1005.82741969" y="0.0" type="line"/>
      <point x="1193.41995591" y="0.0" type="line"/>
      <point x="558.763200714" y="801.911794037" type="line"/>
      <point x="563.93769683" y="718.744961159" type="line"/>
      <point x="1164.37681083" y="1349.30584716" type="line"/>
      <point x="978.001915809" y="1349.30584716" type="line"/>
      <point x="312.731550493" y="658.215725383" type="line"/>
      <point x="358.251207222" y="649.215725383" type="line"/>
      <point x="358.251207222" y="1349.30584716" type="line"/>
      <point x="198.874396389" y="1349.30584716" type="line"/>
    </contour>
  </outline>
</glyph>
<glyph name="L" format="1">
  <advance width="1054.51774092"/>
  <unicode hex="004C"/>
  <outline>
    <contour>
      <point x="519.735382112" y="997.199322906" type="move" name="top"/>
    </contour>
    <contour>
      <point x="519.735382112" y="0.0" type="move" name="bottom"/>
    </contour>
    <contour>
      <point x="198.874396389" y="0.0" type="line"/>
      <point x="989.907962419" y="0.0" type="line"/>
      <point x="993.558970187" y="121.380642452" type="line"/>
      <point x="294.558970187" y="121.380642452" type="line"/>
      <point x="358.251207222" y="56.2099779551" type="line"/>
      <point x="358.251207222" y="1349.30584716" type="line"/>
      <point x="198.874396389" y="1349.30584716" type="line"/>
    </contour>
  </outline>
</glyph>
<glyph name="P" format="1">
  <advance width="1188.25312303"/>
  <unicode hex="0050"/>
  <outline>
    <contour>
      <point x="198.874396389" y="0.0" type="line"/>
      <point x="358.251207222" y="0.0" type="line"/>
      <point x="358.251207222" y="667.099700819" type="line"/>
      <point x="301.860985723" y="620.536899013" type="line"/>
      <point x="319.333665757" y="618.972181398"/>
      <point x="644.262702079" y="617.668250052"/>
      <point x="657.823588075" y="617.668250052" type="curve" smooth="yes"/>
      <point x="972.16300126" y="617.668250052"/>
      <point x="1099.72771887" y="761.227220239"/>
      <point x="1099.72771887" y="999.531151585" type="curve" smooth="yes"/>
      <point x="1099.72771887" y="1245.61361012"/>
      <point x="913.949191686" y="1349.30584716"/>
      <point x="661.519656729" y="1349.30584716" type="curve" smooth="yes"/>
      <point x="198.874396389" y="1349.30584716" type="line"/>
    </contour>
    <contour>
      <point x="652.521572538" y="733.572380852" type="curve"/>
      <point x="301.9041308" y="733.572380852" type="line"/>
      <point x="358.251207222" y="689.184075163" type="line"/>
      <point x="358.251207222" y="1283.35857128" type="line"/>
      <point x="301.9041308" y="1229.48992232" type="line"/>
      <point x="656.605946882" y="1229.48992232" type="line" smooth="yes"/>
      <point x="826.476511652" y="1229.48992232"/>
      <point x="940.350908041" y="1169.01341067"/>
      <point x="940.350908041" y="998.184075163" type="curve" smooth="yes"/>
      <point x="940.350908041" y="813.480343271"/>
      <point x="860.560885996" y="733.572380852"/>
    </contour>
  </outline>
</glyph>
<glyph name="U" format="1">
  <advance width="1383.73729792"/>
  <unicode hex="0055"/>
  <outline>
    <contour>
      <point x="694.086290153" y="997.199322906" type="move" name="top"/>
    </contour>
    <contour>
      <point x="1225.77661138" y="10.0" type="move" name="ogonek"/>
    </contour>
    <contour>
      <point x="691.12943523" y="-18.0" type="curve" smooth="yes"/>
      <point x="1052.91370985" y="-18.0"/>
      <point x="1224.9530233" y="200.090121772"/>
      <point x="1224.9530233" y="495.088205963" type="curve" smooth="yes"/>
      <point x="1224.9530233" y="1349.30584716" type="line"/>
      <point x="1065.57621247" y="1349.30584716" type="line"/>
      <point x="1065.57621247" y="499.825503884" type="line" smooth="yes"/>
      <point x="1065.57621247" y="244.949191686"/>
      <point x="941.876312198" y="108.770863951"/>
      <point x="691.12943523" y="108.770863951" type="curve" smooth="yes"/>
      <point x="430.859069914" y="108.770863951"/>
      <point x="318.16108545" y="245.427619148"/>
      <point x="318.16108545" y="500.303931346" type="curve" smooth="yes"/>
      <point x="318.16108545" y="1349.30584716" type="line"/>
      <point x="158.784274617" y="1349.30584716" type="line"/>
      <point x="158.784274617" y="497.566633424" type="line" smooth="yes"/>
      <point x="158.784274617" y="201.786190426"/>
      <point x="330.562801806" y="-18.0"/>
    </contour>
  </outline>
</glyph>
<glyph name="bracketright" format="1">
  <advance width="641.42187172"/>
  <unicode hex="005D"/>
  <outline>
    <contour>
      <point x="103.823588075" y="-240.319257821" type="line"/>
      <point x="510.690321226" y="-240.319257821" type="line"/>
      <point x="510.690321226" y="1374.86290153" type="line"/>
      <point x="103.823588075" y="1374.86290153" type="line"/>
      <point x="103.823588075" y="1267.04506089" type="line"/>
      <point x="378.790022045" y="1267.04506089" type="line"/>
      <point x="378.790022045" y="-134.240630905" type="line"/>
      <point x="103.823588075" y="-134.240630905" type="line"/>
    </contour>
  </outline>
</glyph>
<glyph name="asciicircum" format="1">
  <advance width="1200.01341067"/>
  <unicode hex="005E"/>
  <outline>
    <contour>
      <point x="141.358571279" y="546.441029813" type="line"/>
      <point x="250.564717615" y="546.441029813" type="line"/>
      <point x="583.701816082" y="1246.49758556" type="line"/>
      <point x="942.056555742" y="546.441029813" type="line"/>
      <point x="1048.30584716" y="546.441029813" type="line"/>
      <point x="625.48225908" y="1387.6567552" type="line"/>
      <point x="541.878228008" y="1387.6567552" type="line"/>
    </contour>
  </outline>
</glyph>
<glyph name="grave" format="1">
  <advance width="625.889722864"/>
  <unicode hex="0060"/>
  <outline>
    <contour>
      <point x="291.921373084" y="728.86473861" type="move" name="_top"/>
    </contour>
    <contour>
      <point x="394.489922318" y="1151.22530443" type="line"/>
      <point x="478.176411925" y="1151.22530443" type="line"/>
      <point x="313.003831619" y="1501.8763122" type="line"/>
      <point x="105.666334243" y="1501.8763122" type="line"/>
    </contour>
  </outline>
</glyph>
<glyph name="g" format="1">
  <advance width="1186.17832773"/>
  <unicode hex="0067"/>
  <outline>
    <contour>
      <point x="599.305847155" y="728.86473861" type="move" name="top"/>
    </contour>
    <contour>
      <point x="522.911794037" y="-408.692237035" type="curve" smooth="yes"/>
      <point x="945.786190426" y="-408.692237035"/>
      <point x="1029.21764119" y="-204.692237035"/>
      <point x="1029.21764119" y="104.647176149" type="curve" smooth="yes"/>
      <point x="1029.21764119" y="994.084374344" type="line"/>
      <point x="890.923288894" y="994.084374344" type="line"/>
      <point x="876.619357548" y="778.949191686" type="line"/>
      <point x="908.662502624" y="781.296268108" type="line"/>
      <point x="854.229136049" y="921.468848415"/>
      <point x="740.576212471" y="1013.64909196"/>
      <point x="562.005747428" y="1013.64909196" type="curve" smooth="yes"/>
      <point x="243.474595843" y="1013.64909196"/>
      <point x="110.61169431" y="763.076711106"/>
      <point x="110.61169431" y="490.909878228" type="curve" smooth="yes"/>
      <point x="110.61169431" y="257.352823851"/>
      <point x="242.739213731" y="0.0"/>
      <point x="549.309678774" y="0.0" type="curve" smooth="yes"/>
      <point x="750.142845895" y="0.0"/>
      <point x="877.533067394" y="132.223388621"/>
      <point x="915.705647701" y="260.437198194" type="curve"/>
      <point x="877.793853664" y="261.566633424" type="line"/>
      <point x="878.054639933" y="73.3528238505" type="line"/>
      <point x="878.054639933" y="-188.092037581"/>
      <point x="809.052724123" y="-286.527319966"/>
      <point x="497.172580307" y="-286.527319966" type="curve" smooth="yes"/>
      <point x="426.219557002" y="-286.527319966"/>
      <point x="339.22530443" y="-280.397884737"/>
      <point x="272.178327735" y="-274.397884737" type="curve"/>
      <point x="281.699900273" y="-391.041229267" type="line"/>
      <point x="345.140930086" y="-399.215725383"/>
      <point x="435.788106236" y="-408.692237035"/>
    </contour>
    <contour>
      <point x="561.521572538" y="115.164917069" type="curve" smooth="yes"/>
      <point x="337.121771992" y="115.164917069"/>
      <point x="261.643344531" y="330.433366576"/>
      <point x="261.643344531" y="499.38830569" type="curve" smooth="yes"/>
      <point x="261.643344531" y="667.951107495"/>
      <point x="331.643344531" y="898.441029813"/>
      <point x="563.433366576" y="898.441029813" type="curve"/>
      <point x="788.486090699" y="897.919457275"/>
      <point x="881.054639933" y="737.435282385"/>
      <point x="881.054639933" y="544.87056477" type="curve" smooth="yes"/>
      <point x="881.054639933" y="457.733466303" type="line"/>
      <point x="880.533067394" y="281.604031073"/>
      <point x="788.441029813" y="115.164917069"/>
    </contour>
  </outline>
</glyph>
<glyph name="i" format="1">
  <advance width="483.300099727"/>
  <unicode hex="0069"/>
  <outline>
    <contour>
      <point x="168.786190426" y="0.0" type="line"/>
      <point x="319.817840647" y="0.0" type="line"/>
      <point x="319.817840647" y="993.823588075" type="line"/>
      <point x="168.786190426" y="993.823588075" type="line"/>
    </contour>
    <contour>
      <point x="168.786190426" y="1195.439114" type="line"/>
      <point x="319.817840647" y="1195.439114" type="line"/>
      <point x="319.817840647" y="1359.47651165" type="line"/>
      <point x="168.786190426" y="1359.47651165" type="line"/>
    </contour>
  </outline>
</glyph>
<glyph name="j" format="1">
  <advance width="516.907962419"/>
  <unicode hex="006A"/>
  <outline>
    <contour>
      <point x="33.6999002729" y="-402.654839387" type="line"/>
      <point x="78.1764119253" y="-402.654839387" type="line" smooth="yes"/>
      <point x="305.253123032" y="-402.654839387"/>
      <point x="358.382558262" y="-327.96643397"/>
      <point x="358.382558262" y="-92.3192578207" type="curve" smooth="yes"/>
      <point x="358.382558262" y="994.084374344" type="line"/>
      <point x="206.654839387" y="994.084374344" type="line"/>
      <point x="206.654839387" y="-63.1370984674" type="line" smooth="yes"/>
      <point x="206.654839387" y="-238.444861432"/>
      <point x="202.525404157" y="-272.748792778"/>
      <point x="60.0469766954" y="-272.748792778" type="curve" smooth="yes"/>
      <point x="16.5273199664" y="-272.748792778" type="line"/>
    </contour>
    <contour>
      <point x="206.654839387" y="1195.439114" type="line"/>
      <point x="358.382558262" y="1195.439114" type="line"/>
      <point x="358.382558262" y="1359.47651165" type="line"/>
      <point x="206.654839387" y="1359.47651165" type="line"/>
    </contour>
  </outline>
</glyph>
<glyph name="k" format="1">
  <advance width="1041.08054273"/>
  <unicode hex="006B"/>
  <outline>
    <contour>
      <point x="515.431450766" y="0.0" type="move" name="bottom"/>
    </contour>
    <contour>
      <point x="166.439114004" y="0.0" type="line"/>
      <point x="317.470764224" y="0.0" type="line"/>
      <point x="317.470764224" y="400.302015536" type="line"/>
      <point x="278.168748688" y="319.133266849" type="line"/>
      <point x="465.429534957" y="490.001915809" type="line"/>
      <point x="405.735382112" y="490.001915809" type="line"/>
      <point x="834.309678774" y="0.0" type="line"/>
      <point x="1010.38255826" y="0.0" type="line"/>
      <point x="505.333665757" y="571.38638988" type="line"/>
      <point x="505.333665757" y="503.217641193" type="line"/>
      <point x="999.688405417" y="993.823588075" type="line"/>
      <point x="817.139014277" y="993.823588075" type="line"/>
      <point x="277.080542725" y="459.513909301" type="line"/>
      <point x="311.209977955" y="459.513909301" type="line"/>
      <point x="317.470764224" y="690.380642452" type="line"/>
      <point x="317.470764224" y="1392.0" type="line"/>
      <point x="166.439114004" y="1380.43528239" type="line"/>
    </contour>
  </outline>
</glyph>
<glyph name="l" format="1">
  <advance width="589.294352299"/>
  <unicode hex="006C"/>
  <outline>
    <contour>
      <point x="246.953023305" y="728.86473861" type="move" name="top"/>
    </contour>
    <contour>
      <point x="474.553222759" y="728.86473861" type="move" name="topright"/>
    </contour>
    <contour>
      <point x="246.953023305" y="0.0" type="move" name="bottom"/>
    </contour>
    <contour>
      <point x="445.821672265" y="-10.7823588075" type="curve" smooth="yes"/>
      <point x="512.690321226" y="-10.7823588075"/>
      <point x="566.341328994" y="-0.913709846735"/>
      <point x="582.951107495" y="2.08629015326" type="curve"/>
      <point x="582.951107495" y="104.468848415" type="line"/>
      <point x="570.821672265" y="103.208062146"/>
      <point x="516.735382112" y="96.6864896074"/>
      <point x="469.994252572" y="96.6864896074" type="curve" smooth="yes"/>
      <point x="356.164917069" y="96.6864896074"/>
      <point x="317.470764224" y="139.949191686"/>
      <point x="317.470764224" y="276.855238295" type="curve" smooth="yes"/>
      <point x="317.470764224" y="1392.26078627" type="line"/>
      <point x="166.439114004" y="1380.43528239" type="line"/>
      <point x="166.439114004" y="283.465016796" type="line" smooth="yes"/>
      <point x="166.439114004" y="53.0354818392"/>
      <point x="283.399800546" y="-10.7823588075"/>
    </contour>
  </outline>
</glyph>
<glyph name="n" format="1">
  <advance width="1140.25695465"/>
  <unicode hex="006E"/>
  <outline>
    <contour>
      <point x="552.562801806" y="728.86473861" type="move" name="top"/>
    </contour>
    <contour>
      <point x="552.562801806" y="0.0" type="move" name="bottom"/>
    </contour>
    <contour>
      <point x="166.439114004" y="0.0" type="line"/>
      <point x="317.470764224" y="0.0" type="line"/>
      <point x="317.470764224" y="557.35473966" type="line" smooth="yes"/>
      <point x="317.470764224" y="735.61169431"/>
      <point x="383.949191686" y="898.701816082"/>
      <point x="626.998084191" y="898.701816082" type="curve" smooth="yes"/>
      <point x="788.480343271" y="898.701816082"/>
      <point x="833.264617888" y="794.264617888"/>
      <point x="832.786190426" y="625.305847155" type="curve"/>
      <point x="832.786190426" y="0.0" type="line"/>
      <point x="983.817840647" y="0.0" type="line"/>
      <point x="983.817840647" y="605.996168381" type="line" smooth="yes"/>
      <point x="983.817840647" y="877.694152845"/>
      <point x="880.427619148" y="1013.64909196"/>
      <point x="652.080542725" y="1013.64909196" type="curve" smooth="yes"/>
      <point x="461.77469557" y="1013.64909196"/>
      <point x="345.906046609" y="926.778527189"/>
      <point x="283.039313458" y="800.343244804" type="curve"/>
      <point x="321.733466303" y="800.343244804" type="line"/>
      <point x="298.300099727" y="993.823588075" type="line"/>
      <point x="166.439114004" y="993.823588075" type="line"/>
    </contour>
  </outline>
</glyph>
<glyph name="o" format="1">
  <advance width="1154.69415284"/>
  <unicode hex="006F"/>
  <outline>
    <contour>
      <point x="577.347076422" y="728.86473861" type="move" name="top"/>
    </contour>
    <contour>
      <point x="578.086290153" y="96.6864896074" type="curve" smooth="yes"/>
      <point x="367.949191686" y="96.6864896074"/>
      <point x="260.9041308" y="267.345160613"/>
      <point x="260.9041308" y="494.25887046" type="curve" smooth="yes"/>
      <point x="260.9041308" y="727.043145077"/>
      <point x="368.470764224" y="898.701816082"/>
      <point x="578.086290153" y="898.701816082" type="curve" smooth="yes"/>
      <point x="792.658671006" y="898.701816082"/>
      <point x="895.268449507" y="726.303931346"/>
      <point x="895.268449507" y="493.519656729" type="curve" smooth="yes"/>
      <point x="895.268449507" y="266.823588075"/>
      <point x="794.615525929" y="96.6864896074"/>
    </contour>
    <contour>
      <point x="578.086290153" y="-18.0" type="curve" smooth="yes"/>
      <point x="856.51774092" y="-18.0"/>
      <point x="1044.82167227" y="198.305847155"/>
      <point x="1044.82167227" y="495.737297921" type="curve" smooth="yes"/>
      <point x="1044.82167227" y="801.735382112"/>
      <point x="872.12943523" y="1013.64909196"/>
      <point x="578.086290153" y="1013.64909196" type="curve" smooth="yes"/>
      <point x="287.088205963" y="1013.64909196"/>
      <point x="111.350908041" y="800.125603611"/>
      <point x="111.350908041" y="495.737297921" type="curve" smooth="yes"/>
      <point x="111.350908041" y="197.392137308"/>
      <point x="290.478427462" y="-18.0"/>
    </contour>
  </outline>
</glyph>
<glyph name="p" format="1">
  <advance width="1171.78427462"/>
  <unicode hex="0070"/>
  <outline>
    <contour>
      <point x="167.221472811" y="-438.307762965" type="line"/>
      <point x="318.253123032" y="-429.003831619" type="line"/>
      <point x="318.253123032" y="-63.7881062356" type="line" smooth="yes"/>
      <point x="307.817840647" y="287.229136049" type="line"/>
      <point x="270.64526034" y="258.793853664" type="line"/>
      <point x="317.255038841" y="127.786190426"/>
      <point x="436.38638988" y="-18.0"/>
      <point x="641.694152845" y="-18.0" type="curve" smooth="yes"/>
      <point x="907.607862692" y="-18.0"/>
      <point x="1061.17258031" y="192.954939114"/>
      <point x="1061.17258031" y="493.041229267" type="curve" smooth="yes"/>
      <point x="1061.17258031" y="801.564717615"/>
      <point x="918.086290153" y="1013.64909196"/>
      <point x="641.25695465" y="1013.64909196" type="curve" smooth="yes"/>
      <point x="469.643344531" y="1013.64909196"/>
      <point x="340.992336763" y="911.296268108"/>
      <point x="280.38638988" y="757.990420953" type="curve"/>
      <point x="313.078626916" y="754.294352299" type="line"/>
      <point x="292.123687802" y="993.823588075" type="line"/>
      <point x="167.221472811" y="993.823588075" type="line"/>
    </contour>
    <contour>
      <point x="618.827419693" y="96.9472758765" type="curve" smooth="yes"/>
      <point x="427.51774092" y="96.9472758765"/>
      <point x="315.513909301" y="251.127519421"/>
      <point x="315.513909301" y="511.519656729" type="curve"/>
      <point x="316.035481839" y="740.954939114"/>
      <point x="409.341328994" y="898.701816082"/>
      <point x="626.654839387" y="898.701816082" type="curve" smooth="yes"/>
      <point x="831.272281125" y="898.701816082"/>
      <point x="910.140930086" y="729.737297921"/>
      <point x="910.140930086" y="495.041229267" type="curve" smooth="yes"/>
      <point x="910.140930086" y="253.300099727"/>
      <point x="820.227220239" y="96.9472758765"/>
    </contour>
  </outline>
</glyph>
<glyph name="r" format="1">
  <advance width="763.562801806"/>
  <unicode hex="0072"/>
  <outline>
    <contour>
      <point x="359.38830569" y="728.86473861" type="move" name="top"/>
    </contour>
    <contour>
      <point x="359.38830569" y="0.0" type="move" name="bottom"/>
    </contour>
    <contour>
      <point x="166.960686542" y="0.0" type="line"/>
      <point x="317.992336763" y="0.0" type="line"/>
      <point x="317.992336763" y="563.566633424" type="line" smooth="yes"/>
      <point x="317.992336763" y="737.307762965"/>
      <point x="445.38638988" y="883.139014277"/>
      <point x="619.604031073" y="883.139014277" type="curve" smooth="yes"/>
      <point x="640.429534957" y="883.139014277"/>
      <point x="664.690321226" y="881.139014277"/>
      <point x="688.080542725" y="875.878228008" type="curve"/>
      <point x="695.037397649" y="998.737297921" type="line"/>
      <point x="673.211893764" y="1002.51965673"/>
      <point x="647.037397649" y="1003.99808419"/>
      <point x="618.862901533" y="1003.99808419" type="curve" smooth="yes"/>
      <point x="492.731550493" y="1003.99808419"/>
      <point x="355.731550493" y="925.170664497"/>
      <point x="274.776611379" y="734.035481839" type="curve"/>
      <point x="309.121771992" y="728.209977955" type="line"/>
      <point x="286.862901533" y="993.823588075" type="line"/>
      <point x="166.960686542" y="993.823588075" type="line"/>
    </contour>
  </outline>
</glyph>
<glyph name="s" format="1">
  <advance width="910.213809574"/>
  <unicode hex="0073"/>
  <outline>
    <contour>
      <point x="458.260786269" y="727.386311148" type="move" name="top"/>
    </contour>
    <contour>
      <point x="458.260786269" y="0.0" type="move" name="bottom"/>
    </contour>
    <contour>
      <point x="460.302015536" y="-17.7392137308" type="curve" smooth="yes"/>
      <point x="676.864817342" y="-17.7392137308"/>
      <point x="802.776611379" y="78.3020155364"/>
      <point x="806.472680034" y="260.168748688" type="curve" smooth="yes"/>
      <point x="806.472680034" y="409.080542725"/>
      <point x="743.651007768" y="487.211893764"/>
      <point x="526.862901533" y="560.255038841" type="curve" smooth="yes"/>
      <point x="449.686489607" y="586.733466303" type="line" smooth="yes"/>
      <point x="317.772779761" y="630.427619148"/>
      <point x="267.076711106" y="666.864817342"/>
      <point x="267.076711106" y="756.172580307" type="curve" smooth="yes"/>
      <point x="267.076711106" y="838.827419693"/>
      <point x="344.731550493" y="901.309678774"/>
      <point x="486.911794037" y="901.309678774" type="curve" smooth="yes"/>
      <point x="587.739213731" y="901.309678774"/>
      <point x="660.213809574" y="875.658671006"/>
      <point x="723.125603611" y="846.790022045" type="curve"/>
      <point x="760.427619148" y="954.478427462" type="line"/>
      <point x="673.690321226" y="993.911794037"/>
      <point x="594.737297921" y="1013.64909196"/>
      <point x="475.694152845" y="1013.64909196" type="curve" smooth="yes"/>
      <point x="256.12943523" y="1013.64909196"/>
      <point x="134.696068654" y="894.907962419"/>
      <point x="134.696068654" y="744.303931346" type="curve"/>
      <point x="135.696068654" y="628.135182658"/>
      <point x="195.694152845" y="540.784274617"/>
      <point x="378.478427462" y="478.046976695" type="curve"/>
      <point x="460.046976695" y="450.568549234" type="line" smooth="yes"/>
      <point x="631.791937854" y="392.046976695"/>
      <point x="672.397884737" y="346.652923578"/>
      <point x="672.397884737" y="252.823588075" type="curve"/>
      <point x="671.876312198" y="149.298183918"/>
      <point x="611.003831619" y="94.6001994541"/>
      <point x="465.476511652" y="93.8178406467" type="curve" smooth="yes"/>
      <point x="335.907962419" y="93.0354818392"/>
      <point x="238.782358807" y="131.641428721"/>
      <point x="181.523488348" y="157.986589334" type="curve"/>
      <point x="147.61169431" y="52.429534957" type="line"/>
      <point x="181.656755196" y="34.2118937644"/>
      <point x="310.394053118" y="-17.7392137308"/>
    </contour>
  </outline>
</glyph>
<glyph name="x" format="1">
  <advance width="1015.07862692"/>
  <unicode hex="0078"/>
  <outline>
    <contour>
      <point x="56.1764119253" y="0.0" type="line"/>
      <point x="205.42187172" y="0.0" type="line"/>
      <point x="521.125603611" y="429.658671006" type="line"/>
      <point x="574.598283645" y="474.652923578" type="line"/>
      <point x="946.380642452" y="993.823588075" type="line"/>
      <point x="797.135182658" y="993.823588075" type="line"/>
      <point x="497.605946882" y="572.859069914" type="line"/>
      <point x="443.568549234" y="527.039313458" type="line"/>
    </contour>
    <contour>
      <point x="805.395968927" y="0.0" type="line"/>
      <point x="960.380642452" y="0.0" type="line"/>
      <point x="220.204230527" y="993.823588075" type="line"/>
      <point x="66.7411295402" y="993.823588075" type="line"/>
    </contour>
  </outline>
</glyph>
<glyph name="y" format="1">
  <advance width="1018.30009973"/>
  <unicode hex="0079"/>
  <outline>
    <contour>
      <point x="497.127519421" y="728.86473861" type="move" name="top"/>
    </contour>
    <contour>
      <point x="450.035481839" y="-374.521572538" type="line"/>
      <point x="974.558970187" y="993.823588075" type="line"/>
      <point x="826.093953391" y="993.823588075" type="line"/>
      <point x="516.694152845" y="144.945360067" type="line"/>
      <point x="554.127519421" y="144.945360067" type="line"/>
      <point x="221.772779761" y="993.823588075" type="line"/>
      <point x="67.6548393869" y="993.823588075" type="line"/>
      <point x="487.829335503" y="-34.1725803065" type="line"/>
      <point x="487.829335503" y="81.7804429981" type="line"/>
      <point x="320.003831619" y="-356.088205963" type="line"/>
    </contour>
  </outline>
</glyph>
<glyph name="braceright" format="1">
  <advance width="736.092037581"/>
  <unicode hex="007D"/>
  <outline>
    <contour>
      <point x="107.350908041" y="-258.305847155" type="line"/>
      <point x="306.474595843" y="-257.566633424"/>
      <point x="406.906046609" y="-155.735382112"/>
      <point x="406.906046609" y="25.6960686542" type="curve" smooth="yes"/>
      <point x="406.906046609" y="237.821672265" type="line" smooth="yes"/>
      <point x="406.906046609" y="397.519656729"/>
      <point x="429.860985723" y="517.137098467"/>
      <point x="604.080542725" y="517.137098467" type="curve"/>
      <point x="604.080542725" y="630.343244804" type="line"/>
      <point x="423.860985723" y="632.821672265"/>
      <point x="406.906046609" y="747.48225908"/>
      <point x="406.906046609" y="909.35473966" type="curve" smooth="yes"/>
      <point x="406.906046609" y="1083.30201554" type="line" smooth="yes"/>
      <point x="406.906046609" y="1290.51774092"/>
      <point x="325.651007768" y="1403.69798446"/>
      <point x="107.350908041" y="1403.69798446" type="curve"/>
      <point x="107.350908041" y="1296.09970082" type="line"/>
      <point x="243.221472811" y="1294.09970082"/>
      <point x="284.615525929" y="1231.57429666"/>
      <point x="284.615525929" y="1073.96068654" type="curve" smooth="yes"/>
      <point x="284.615525929" y="832.960686542" type="line"/>
      <point x="284.397884737" y="727.48417489"/>
      <point x="327.570465043" y="614.609778501"/>
      <point x="452.615525929" y="577.305847155" type="curve"/>
      <point x="321.917541465" y="482.125603611"/>
      <point x="284.615525929" y="427.996168381"/>
      <point x="284.615525929" y="313.38830569" type="curve" smooth="yes"/>
      <point x="284.615525929" y="71.1275194205" type="line" smooth="yes"/>
      <point x="284.615525929" y="-91.660586815"/>
      <point x="240.74304535" y="-147.011494856"/>
      <point x="107.350908041" y="-149.011494856" type="curve"/>
    </contour>
  </outline>
</glyph>
<glyph name="asciitilde" format="1">
  <advance width="1130.12943523"/>
  <unicode hex="007E"/>
  <outline>
    <contour>
      <point x="132.427619148" y="463.307762965" type="line"/>
      <point x="176.558970187" y="545.092037581"/>
      <point x="252.778527189" y="612.744961159"/>
      <point x="335.953023305" y="612.744961159" type="curve" smooth="yes"/>
      <point x="401.431450766" y="612.744961159"/>
      <point x="473.12943523" y="580.395968927"/>
      <point x="572.872480579" y="536.090121772" type="curve"/>
      <point x="649.001915809" y="501.786190426"/>
      <point x="716.697984464" y="476.264617888"/>
      <point x="780.043145077" y="476.264617888" type="curve" smooth="yes"/>
      <point x="894.302015536" y="476.264617888"/>
      <point x="965.427619148" y="546.262702079"/>
      <point x="1011.20997796" y="661.395968927" type="curve"/>
      <point x="967.953023305" y="739.694152845" type="line"/>
      <point x="933.87056477" y="661.12943523"/>
      <point x="858.825503884" y="592.125603611"/>
      <point x="781.476511652" y="592.125603611" type="curve" smooth="yes"/>
      <point x="724.823588075" y="592.125603611"/>
      <point x="649.082458535" y="629.38830569"/>
      <point x="559.733466303" y="667.345160613" type="curve" smooth="yes"/>
      <point x="465.253123032" y="709.215725383"/>
      <point x="413.082458535" y="729.302015536"/>
      <point x="338.778527189" y="729.302015536" type="curve" smooth="yes"/>
      <point x="219.998084191" y="729.302015536"/>
      <point x="138.302015536" y="650.737297921"/>
      <point x="96.4765116523" y="548.823588075" type="curve"/>
    </contour>
  </outline>
</glyph>
<glyph name="exclamdown" format="1">
  <advance width="509.448693051"/>
  <unicode hex="00A1"/>
  <outline>
    <contour>
      <point x="170.313510393" y="3.39213730842" type="line"/>
      <point x="332.87056477" y="3.39213730842" type="line"/>
      <point x="332.87056477" y="115.03356603" type="line"/>
      <point x="277.827419693" y="979.529235776" type="line"/>
      <point x="217.790022045" y="979.529235776" type="line"/>
      <point x="170.313510393" y="115.03356603" type="line"/>
    </contour>
    <contour>
      <point x="252.266533697" y="1153.9252047" type="curve" smooth="yes"/>
      <point x="331.570465043" y="1153.9252047"/>
      <point x="366.480343271" y="1212.3154262"/>
      <point x="366.480343271" y="1267.66058682" type="curve" smooth="yes"/>
      <point x="366.480343271" y="1323.74496116"/>
      <point x="331.570465043" y="1382.35282385"/>
      <point x="252.266533697" y="1382.35282385" type="curve" smooth="yes"/>
      <point x="172.223388621" y="1382.35282385"/>
      <point x="139.270365316" y="1323.2665337"/>
      <point x="139.270365316" y="1267.66058682" type="curve" smooth="yes"/>
      <point x="139.270365316" y="1212.3154262"/>
      <point x="172.701816082" y="1153.9252047"/>
    </contour>
  </outline>
</glyph>
<glyph name="cent" format="1">
  <advance width="986.395968927"/>
  <unicode hex="00A2"/>
  <outline>
    <contour>
      <point x="555.441029813" y="42.4601879068" type="line"/>
      <point x="637.525404157" y="42.4601879068" type="line"/>
      <point x="637.525404157" y="179.319257821" type="line"/>
      <point x="722.176411925" y="185.101616628"/>
      <point x="813.917541465" y="214.840830359"/>
      <point x="867.872480579" y="269.493753937" type="curve"/>
      <point x="835.744961159" y="363.876312198" type="line"/>
      <point x="785.570465043" y="328.180243544"/>
      <point x="716.395968927" y="295.48417489"/>
      <point x="637.525404157" y="288.962602351" type="curve"/>
      <point x="637.525404157" y="1112.85232522" type="line"/>
      <point x="699.654839387" y="1108.76603506"/>
      <point x="766.654839387" y="1091.11502729"/>
      <point x="835.701816082" y="1045.63468402" type="curve"/>
      <point x="869.221472811" y="1139.49566975" type="line"/>
      <point x="822.266533697" y="1186.97409721"/>
      <point x="737.178327735" y="1219.40937959"/>
      <point x="637.525404157" y="1224.71331094" type="curve"/>
      <point x="637.525404157" y="1382.79576947" type="line"/>
      <point x="555.441029813" y="1382.79576947" type="line"/>
      <point x="555.441029813" y="1224.49566975" type="line"/>
      <point x="276.045060886" y="1199.5819599"/>
      <point x="123.441029813" y="948.746876968"/>
      <point x="121.701816082" y="698.187906781" type="curve"/>
      <point x="121.701816082" y="445.760287634"/>
      <point x="268.394053118" y="203.319257821"/>
      <point x="555.441029813" y="179.319257821" type="curve"/>
    </contour>
    <contour>
      <point x="555.441029813" y="289.178327735" type="line"/>
      <point x="371.651007768" y="315.48225908"/>
      <point x="252.298183918" y="482.315426202"/>
      <point x="252.298183918" y="692.795769473" type="curve" smooth="yes"/>
      <point x="252.298183918" y="909.407463783"/>
      <point x="379.651007768" y="1084.24254671"/>
      <point x="555.441029813" y="1109.72097418" type="curve"/>
    </contour>
  </outline>
</glyph>
<glyph name="brokenbar" format="1">
  <advance width="304.779524459"/>
  <unicode hex="00A6"/>
  <outline>
    <contour>
      <point x="95.2416281755" y="-368.786190426" type="line"/>
      <point x="207.535980474" y="-368.786190426" type="line"/>
      <point x="207.535980474" y="271.123687802" type="line"/>
      <point x="95.2416281755" y="271.123687802" type="line"/>
    </contour>
    <contour>
      <point x="95.2416281755" y="806.268449507" type="line"/>
      <point x="207.535980474" y="806.268449507" type="line"/>
      <point x="207.535980474" y="1443.69990027" type="line"/>
      <point x="95.2416281755" y="1443.69990027" type="line"/>
    </contour>
  </outline>
</glyph>
<glyph name="dieresis" format="1">
  <advance width="706.350908041"/>
  <unicode hex="00A8"/>
  <outline>
    <contour>
      <point x="357.479385366" y="728.86473861" type="move" name="_top"/>
    </contour>
    <contour>
      <point x="119.919457275" y="1145.61169431" type="line"/>
      <point x="245.172580307" y="1145.61169431" type="line"/>
      <point x="245.172580307" y="1327.03931346" type="line"/>
      <point x="119.919457275" y="1327.03931346" type="line"/>
    </contour>
    <contour>
      <point x="468.568549234" y="1145.61169431" type="line"/>
      <point x="594.300099727" y="1145.61169431" type="line"/>
      <point x="594.300099727" y="1327.03931346" type="line"/>
      <point x="468.568549234" y="1327.03931346" type="line"/>
    </contour>
  </outline>
</glyph>
<glyph name="copyright" format="1">
  <advance width="1711.88972286"/>
  <unicode hex="00A9"/>
  <outline>
    <contour>
      <point x="855.83699874" y="248.566633424" type="curve" smooth="yes"/>
      <point x="970.011494856" y="248.566633424"/>
      <point x="1092.3624029" y="282.958770733"/>
      <point x="1154.01341067" y="322.566633424" type="curve"/>
      <point x="1122.01532647" y="417.521572538" type="line"/>
      <point x="1074.53881482" y="383.217641193"/>
      <point x="966.623189166" y="349.911794037"/>
      <point x="876.96834978" y="349.911794037" type="curve" smooth="yes"/>
      <point x="636.221472811" y="349.911794037"/>
      <point x="536.092037581" y="518.786190426"/>
      <point x="536.092037581" y="727.048892505" type="curve" smooth="yes"/>
      <point x="536.092037581" y="914.656755196"/>
      <point x="628.568549234" y="1092.44486143"/>
      <point x="854.748792778" y="1092.44486143" type="curve" smooth="yes"/>
      <point x="945.142845895" y="1092.44486143"/>
      <point x="1041.18790678" y="1069.74879278"/>
      <point x="1094.83891455" y="1029.53115159" type="curve"/>
      <point x="1150.79576947" y="1113.13709847" type="line"/>
      <point x="1075.31734201" y="1165.35473966"/>
      <point x="978.621273357" y="1196.26844951"/>
      <point x="869.621273357" y="1196.26844951" type="curve" smooth="yes"/>
      <point x="596.748792778" y="1196.26844951"/>
      <point x="419.617441738" y="995.529235776"/>
      <point x="419.617441738" y="721.874396389" type="curve" smooth="yes"/>
      <point x="419.617441738" y="450.090121772"/>
      <point x="601.791937854" y="248.566633424"/>
    </contour>
    <contour>
      <point x="844.921373084" y="50.3413289943" type="curve" smooth="yes"/>
      <point x="432.347076422" y="50.3413289943"/>
      <point x="223.829335503" y="350.737297921"/>
      <point x="223.829335503" y="718.307762965" type="curve" smooth="yes"/>
      <point x="223.829335503" y="1077.22530443"/>
      <point x="432.347076422" y="1379.62127336"/>
      <point x="840.22530443" y="1379.62127336" type="curve" smooth="yes"/>
      <point x="1274.54073063" y="1379.62127336"/>
      <point x="1482.31925782" y="1075.74687697"/>
      <point x="1482.31925782" y="712.872480579" type="curve" smooth="yes"/>
      <point x="1482.31925782" y="348.519656729"/>
      <point x="1277.01915809" y="50.3413289943"/>
    </contour>
    <contour>
      <point x="844.921373084" y="-29.5685492337" type="curve" smooth="yes"/>
      <point x="1222.44294562" y="-29.5685492337"/>
      <point x="1579.9252047" y="206.643344531"/>
      <point x="1579.9252047" y="716.090121772" type="curve" smooth="yes"/>
      <point x="1579.9252047" y="1222.31925782"/>
      <point x="1218.22530443" y="1457.57429666"/>
      <point x="840.22530443" y="1457.57429666" type="curve" smooth="yes"/>
      <point x="488.140930086" y="1457.57429666"/>
      <point x="126.701816082" y="1224.79768528"/>
      <point x="126.701816082" y="716.090121772" type="curve" smooth="yes"/>
      <point x="126.701816082" y="206.643344531"/>
      <point x="492.83699874" y="-29.5685492337"/>
    </contour>
  </outline>
</glyph>
<glyph name="macron" format="1">
  <advance width="1014.63276821"/>
  <unicode hex="00AF"/>
  <outline>
    <contour>
      <point x="506.271323221" y="728.86473861" type="move" name="_top"/>
    </contour>
    <contour>
      <point x="130.395968927" y="1377.23296767" type="line"/>
      <point x="882.146677514" y="1377.23296767" type="line"/>
      <point x="882.146677514" y="1497.05463993" type="line"/>
      <point x="130.395968927" y="1497.05463993" type="line"/>
    </contour>
  </outline>
</glyph>
<glyph name="plusminus" format="1">
  <advance width="1124.34707642"/>
  <unicode hex="00B1"/>
  <outline>
    <contour>
      <point x="506.568549234" y="205.51774092" type="line"/>
      <point x="610.384474071" y="205.51774092" type="line"/>
      <point x="610.384474071" y="592.001915809" type="line"/>
      <point x="1002.30393135" y="592.001915809" type="line"/>
      <point x="1002.30393135" y="706.253123032" type="line"/>
      <point x="607.906046609" y="706.253123032" type="line"/>
      <point x="607.906046609" y="1095.82550388" type="line"/>
      <point x="505.829335503" y="1095.82550388" type="line"/>
      <point x="505.829335503" y="706.253123032" type="line"/>
      <point x="116.127519421" y="706.253123032" type="line"/>
      <point x="116.127519421" y="592.001915809" type="line"/>
      <point x="506.568549234" y="592.001915809" type="line"/>
    </contour>
    <contour>
      <point x="116.127519421" y="0.0" type="line"/>
      <point x="1004.52157254" y="0.0" type="line"/>
      <point x="1004.52157254" y="119.341328994" type="line"/>
      <point x="116.127519421" y="119.341328994" type="line"/>
    </contour>
  </outline>
</glyph>
<glyph name="acute" format="1">
  <advance width="592.744961159"/>
  <unicode hex="00B4"/>
  <outline>
    <contour>
      <point x="294.380642452" y="728.86473861" type="move" name="_top"/>
    </contour>
    <contour>
      <point x="102.384474071" y="1151.22530443" type="line"/>
      <point x="190.637597103" y="1151.22530443" type="line"/>
      <point x="486.376810834" y="1501.8763122" type="line"/>
      <point x="274.951107495" y="1501.8763122" type="line"/>
    </contour>
  </outline>
</glyph>
<glyph name="paragraph" format="1">
  <advance width="1039.95493911"/>
  <unicode hex="00B6"/>
  <outline>
    <contour>
      <point x="465.315426202" y="-146.566633424" type="line"/>
      <point x="557.956854923" y="-146.566633424" type="line"/>
      <point x="557.956854923" y="1326.23296767" type="line"/>
      <point x="778.793853664" y="1326.23296767" type="line"/>
      <point x="778.793853664" y="-146.566633424" type="line"/>
      <point x="865.480343271" y="-146.566633424" type="line"/>
      <point x="865.480343271" y="1326.23296767" type="line"/>
      <point x="931.827419693" y="1326.23296767" type="line"/>
      <point x="931.827419693" y="1434.66058682" type="line"/>
      <point x="494.429534957" y="1434.66058682" type="line" smooth="yes"/>
      <point x="191.511993491" y="1434.66058682"/>
      <point x="106.874396389" y="1259.73729792"/>
      <point x="106.874396389" y="1118.05272412" type="curve" smooth="yes"/>
      <point x="106.874396389" y="957.83699874"/>
      <point x="256.964518161" y="786.833167122"/>
      <point x="465.315426202" y="785.574296662" type="curve"/>
    </contour>
  </outline>
</glyph>
<glyph name="cedilla" format="1">
  <advance width="550.221472811"/>
  <unicode hex="00B8"/>
  <outline>
    <contour>
      <point x="198.567591329" y="0.0" type="move" name="_bottom"/>
    </contour>
    <contour>
      <point x="121.399800546" y="-390.140930086" type="line"/>
      <point x="240.954939114" y="-390.140930086" type="line"/>
      <point x="276.474595843" y="4.55897018686" type="line"/>
      <point x="218.919457275" y="4.55897018686" type="line"/>
    </contour>
  </outline>
</glyph>
<glyph name="guillemotright" format="1">
  <advance width="940.729634684"/>
  <unicode hex="00BB"/>
  <outline>
    <contour>
      <point x="214.860985723" y="139.958770733" type="line"/>
      <point x="487.16300126" y="499.823588075" type="line"/>
      <point x="215.860985723" y="875.125603611" type="line"/>
      <point x="124.046976695" y="847.519656729" type="line"/>
      <point x="354.045060886" y="509.390221499" type="line"/>
      <point x="123.525404157" y="167.086290153" type="line"/>
    </contour>
    <contour>
      <point x="564.553222759" y="139.958770733" type="line"/>
      <point x="821.853322486" y="499.823588075" type="line"/>
      <point x="567.553222759" y="875.125603611" type="line"/>
      <point x="463.694152845" y="847.519656729" type="line"/>
      <point x="704.954939114" y="509.390221499" type="line"/>
      <point x="458.954939114" y="167.086290153" type="line"/>
    </contour>
  </outline>
</glyph>
<glyph name="multiply" format="1">
  <advance width="828.606944153"/>
  <unicode hex="00D7"/>
  <outline>
    <contour>
      <point x="164.541727903" y="172.874396389" type="line"/>
      <point x="406.886888516" y="462.050808314" type="line"/>
      <point x="648.71047659" y="172.874396389" type="line"/>
      <point x="736.400797817" y="248.345160613" type="line"/>
      <point x="736.400797817" y="248.345160613"/>
      <point x="458.348073693" y="567.619357548"/>
      <point x="477.618439009" y="552.784274617" type="curve"/>
      <point x="736.400797817" y="857.048892505" type="line"/>
      <point x="652.145758975" y="932.215725383" type="line"/>
      <point x="406.886888516" y="642.51774092" type="line"/>
      <point x="161.584872979" y="932.215725383" type="line"/>
      <point x="76.1553380223" y="856.570465043" type="line"/>
      <point x="335.633765484" y="552.784274617" type="line"/>
      <point x="76.1553380223" y="248.823588075" type="line"/>
    </contour>
  </outline>
</glyph>
<glyph name="Oslash" format="1">
  <advance width="1596.88780705"/>
  <unicode hex="00D8"/>
  <outline>
    <contour>
      <point x="798.574296662" y="997.199322906" type="move" name="top"/>
    </contour>
    <contour>
      <point x="520.662502624" y="-160.519656729" type="line"/>
      <point x="584.442945623" y="4.08629015326" type="line"/>
      <point x="647.746876968" y="-14.1744961159"/>
      <point x="717.268449507" y="-23.9137098467"/>
      <point x="795.22530443" y="-23.9137098467" type="curve" smooth="yes"/>
      <point x="1245.3624029" y="-23.9137098467"/>
      <point x="1458.96451816" y="291.352823851"/>
      <point x="1458.96451816" y="715.178327735" type="curve" smooth="yes"/>
      <point x="1458.96451816" y="1027.44102981"/>
      <point x="1348.27036532" y="1259.92137308"/>
      <point x="1137.44294562" y="1376.57429666" type="curve"/>
      <point x="1210.79002204" y="1559.92137308" type="line"/>
      <point x="1089.44102981" y="1600.96451816" type="line"/>
      <point x="1021.26844951" y="1426.05272412" type="line"/>
      <point x="953.22530443" y="1446.57429666"/>
      <point x="875.790022045" y="1457.57429666"/>
      <point x="794.050808314" y="1457.57429666" type="curve" smooth="yes"/>
      <point x="362.697984464" y="1457.57429666"/>
      <point x="130.050808314" y="1165.2665337"/>
      <point x="130.050808314" y="714.960686542" type="curve" smooth="yes"/>
      <point x="130.050808314" y="411.307762965"/>
      <point x="241.092037581" y="162.478427462"/>
      <point x="470.790022045" y="46.6078626916" type="curve"/>
      <point x="404.574296662" y="-122.911794037" type="line"/>
    </contour>
    <contour>
      <point x="527.046976695" y="190.772779761" type="line"/>
      <point x="358.127519421" y="288.77469557"/>
      <point x="275.776611379" y="488.694152845"/>
      <point x="275.776611379" y="721.178327735" type="curve" smooth="yes"/>
      <point x="275.776611379" y="1046.96643397"/>
      <point x="446.954939114" y="1310.27802855"/>
      <point x="793.790022045" y="1310.27802855" type="curve" smooth="yes"/>
      <point x="858.0958692" y="1310.27802855"/>
      <point x="914.488006509" y="1302.27802855"/>
      <point x="967.272281125" y="1285.5819599" type="curve"/>
    </contour>
    <contour>
      <point x="793.790022045" y="125.253123032" type="curve" smooth="yes"/>
      <point x="736.441029813" y="125.253123032"/>
      <point x="687.744961159" y="130.77469557"/>
      <point x="640.178327735" y="144.731550493" type="curve"/>
      <point x="1081.1428459" y="1234.27994436" type="line"/>
      <point x="1235.1917384" y="1131.32117363"/>
      <point x="1310.58579152" y="942.011494856"/>
      <point x="1310.58579152" y="725.137098467" type="curve" smooth="yes"/>
      <point x="1310.58579152" y="391.174496116"/>
      <point x="1144.32117363" y="125.253123032"/>
    </contour>
  </outline>
</glyph>
<glyph name="eth" format="1">
  <advance width="1190.31734201"/>
  <unicode hex="00F0"/>
  <outline>
    <contour>
      <point x="591.003831619" y="-24.3921373084" type="curve" smooth="yes"/>
      <point x="904.223388621" y="-24.3921373084"/>
      <point x="1054.30584716" y="188.874396389"/>
      <point x="1054.30584716" y="453.568549234" type="curve"/>
      <point x="1054.04506089" y="579.176411925"/>
      <point x="1026.65483939" y="688.305847155"/>
      <point x="961.045060886" y="811.395968927" type="curve"/>
      <point x="895.697984464" y="928.178327735"/>
      <point x="790.348992232" y="1057.35473966"/>
      <point x="635.647176149" y="1221.62127336" type="curve"/>
      <point x="867.652923578" y="1309.40554797" type="line"/>
      <point x="832.003831619" y="1414.35473966" type="line"/>
      <point x="561.696068654" y="1310.44102981" type="line"/>
      <point x="421.474595843" y="1460.53115159" type="line"/>
      <point x="244.0958692" y="1460.53115159" type="line"/>
      <point x="466.795769473" y="1256.96643397" type="line"/>
      <point x="254.093953391" y="1175.22530443" type="line"/>
      <point x="287.003831619" y="1066.10161663" type="line"/>
      <point x="541.790022045" y="1170.62510498" type="line"/>
      <point x="720.154340752" y="998.87056477"/>
      <point x="810.111195675" y="873.737297921"/>
      <point x="853.285691791" y="788.037397649" type="curve"/>
      <point x="795.630852404" y="832.041229267"/>
      <point x="706.495669746" y="890.090121772"/>
      <point x="563.048892505" y="890.090121772" type="curve" smooth="yes"/>
      <point x="300.223388621" y="890.090121772"/>
      <point x="127.397884737" y="710.958770733"/>
      <point x="127.397884737" y="444.088205963" type="curve" smooth="yes"/>
      <point x="127.397884737" y="198.786190426"/>
      <point x="285.480343271" y="-24.3921373084"/>
    </contour>
    <contour>
      <point x="596.525404157" y="87.3374973756" type="curve" smooth="yes"/>
      <point x="376.823588075" y="87.3374973756"/>
      <point x="272.431450766" y="262.823588075"/>
      <point x="272.431450766" y="442.87056477" type="curve" smooth="yes"/>
      <point x="272.431450766" y="619.307762965"/>
      <point x="389.303931346" y="773.748792778"/>
      <point x="590.525404157" y="773.748792778" type="curve" smooth="yes"/>
      <point x="803.574296662" y="773.748792778"/>
      <point x="917.793853664" y="598.262702079"/>
      <point x="917.793853664" y="430.0" type="curve" smooth="yes"/>
      <point x="917.793853664" y="240.300099727"/>
      <point x="803.617441738" y="87.3374973756"/>
    </contour>
  </outline>
</glyph>
<glyph name="divide" format="1">
  <advance width="1070.58487298"/>
  <unicode hex="00F7"/>
  <outline>
    <contour>
      <point x="442.860985723" y="20.2176411925" type="line"/>
      <point x="589.761284904" y="20.2176411925" type="line"/>
      <point x="589.761284904" y="215.427619148" type="line"/>
      <point x="442.860985723" y="215.427619148" type="line"/>
    </contour>
    <contour>
      <point x="85.2531230317" y="483.178327735" type="line"/>
      <point x="973.459269368" y="483.178327735" type="line"/>
      <point x="973.459269368" y="607.823588075" type="line"/>
      <point x="85.2531230317" y="607.823588075" type="line"/>
    </contour>
    <contour>
      <point x="442.860985723" y="867.22530443" type="line"/>
      <point x="627.329834138" y="867.22530443" type="line"/>
      <point x="627.329834138" y="1064.00191581" type="line"/>
      <point x="442.860985723" y="1064.00191581" type="line"/>
    </contour>
  </outline>
</glyph>
<glyph name="Hbar" format="1">
  <advance width="1501.71714256"/>
  <unicode hex="0126"/>
  <outline>
    <contour>
      <point x="221.621273357" y="0.0" type="line"/>
      <point x="353.694152845" y="0.0" type="line"/>
      <point x="353.694152845" y="641.570465043" type="line"/>
      <point x="1140.88972286" y="641.570465043" type="line"/>
      <point x="1140.88972286" y="0.0" type="line"/>
      <point x="1273.22338862" y="0.0" type="line"/>
      <point x="1273.22338862" y="1037.69223704" type="line"/>
      <point x="1357.09395339" y="1037.69223704" type="line"/>
      <point x="1357.09395339" y="1122.94727588" type="line"/>
      <point x="1273.22338862" y="1122.94727588" type="line"/>
      <point x="1273.22338862" y="1366.78619043" type="line"/>
      <point x="1140.88972286" y="1366.78619043" type="line"/>
      <point x="1140.88972286" y="1122.94727588" type="line"/>
      <point x="353.694152845" y="1122.94727588" type="line"/>
      <point x="353.694152845" y="1366.78619043" type="line"/>
      <point x="221.621273357" y="1366.78619043" type="line"/>
      <point x="221.621273357" y="1122.94727588" type="line"/>
      <point x="137.011494856" y="1122.94727588" type="line"/>
      <point x="137.011494856" y="1037.69223704" type="line"/>
      <point x="221.621273357" y="1037.69223704" type="line"/>
    </contour>
    <contour>
      <point x="353.694152845" y="768.041229267" type="line"/>
      <point x="353.694152845" y="1037.69223704" type="line"/>
      <point x="1140.88972286" y="1037.69223704" type="line"/>
      <point x="1140.88972286" y="768.041229267" type="line"/>
    </contour>
  </outline>
</glyph>
<glyph name="dotlessi" format="1">
  <advance width="393.511993491"/>
  <unicode hex="0131"/>
  <outline>
    <contour>
      <point x="197.125603611" y="728.86473861" type="move" name="top"/>
    </contour>
    <contour>
      <point x="354.382558262" y="10.0" type="move" name="ogonek"/>
    </contour>
    <contour>
      <point x="136.350908041" y="0.0" type="line"/>
      <point x="262.859069914" y="0.0" type="line"/>
      <point x="262.859069914" y="995.302015536" type="line"/>
      <point x="136.350908041" y="995.302015536" type="line"/>
    </contour>
  </outline>
</glyph>
<glyph name="ldot" format="1">
  <advance width="1062"/>
  <unicode hex="0140"/>
  <outline>
    <contour>
      <point x="401" y="-18" type="curve" smooth="yes"/>
      <point x="427" y="-18"/>
      <point x="485" y="-14"/>
      <point x="551" y="-3" type="curve"/>
      <point x="542" y="122" type="line"/>
      <point x="513" y="118"/>
      <point x="471" y="116"/>
      <point x="445" y="116" type="curve" smooth="yes"/>
      <point x="313" y="116"/>
      <point x="309" y="163"/>
      <point x="309" y="360" type="curve" smooth="yes"/>
      <point x="309" y="1431" type="line"/>
      <point x="135" y="1417" type="line"/>
      <point x="135" y="305" type="line" smooth="yes"/>
      <point x="135" y="45"/>
      <point x="244" y="-18"/>
    </contour>
    <contour>
      <point x="802" y="511" type="line"/>
      <point x="955" y="511" type="line"/>
      <point x="955" y="691" type="line"/>
      <point x="802" y="691" type="line"/>
    </contour>
  </outline>
</glyph>
<glyph name="Eng" format="1">
  <advance width="1305.8763122"/>
  <unicode hex="014A"/>
  <outline>
    <contour>
      <point x="777.917541465" y="-296.12943523" type="curve" smooth="yes"/>
      <point x="1102.69798446" y="-296.12943523"/>
      <point x="1143.55705438" y="-125.823588075"/>
      <point x="1143.55705438" y="151.87056477" type="curve" smooth="yes"/>
      <point x="1143.55705438" y="927.962602351" type="line" smooth="yes"/>
      <point x="1143.55705438" y="1229.48417489"/>
      <point x="1020.7334663" y="1387.39405312"/>
      <point x="785.696068654" y="1387.39405312" type="curve" smooth="yes"/>
      <point x="622.998084191" y="1387.39405312"/>
      <point x="461.825503884" y="1356.8763122"/>
      <point x="275.684573798" y="1161.73538211" type="curve"/>
      <point x="261.076711106" y="1365.65483939" type="line"/>
      <point x="147.744961159" y="1365.65483939" type="line"/>
      <point x="150.701816082" y="0.0" type="line"/>
      <point x="272.378726643" y="0.0" type="line"/>
      <point x="272.378726643" y="997.003831619" type="line"/>
      <point x="360.988505144" y="1125.61169431"/>
      <point x="516.206146336" y="1254.05463993"/>
      <point x="741.219557002" y="1254.05463993" type="curve" smooth="yes"/>
      <point x="953.270365316" y="1254.05463993"/>
      <point x="1022.61935755" y="1172.35857128"/>
      <point x="1022.61935755" y="923.876312198" type="curve" smooth="yes"/>
      <point x="1022.61935755" y="159.697984464" type="line" smooth="yes"/>
      <point x="1022.61935755" y="-106.835082931"/>
      <point x="1003.01149486" y="-177.315426202"/>
      <point x="723.519656729" y="-177.315426202" type="curve" smooth="yes"/>
      <point x="700.778527189" y="-177.315426202"/>
      <point x="694.001915809" y="-176.315426202"/>
      <point x="545.337497376" y="-168.140930086" type="curve"/>
      <point x="566.076711106" y="-282.519656729" type="line"/>
      <point x="700.131351039" y="-295.390221499"/>
      <point x="747.523488348" y="-296.12943523"/>
    </contour>
  </outline>
</glyph>
<glyph name="eng" format="1">
  <advance width="1111.96451816"/>
  <unicode hex="014B"/>
  <outline>
    <contour>
      <point x="591.131351039" y="-261.77469557" type="line"/>
      <point x="654.87056477" y="-261.77469557" type="line" smooth="yes"/>
      <point x="911.255038841" y="-261.77469557"/>
      <point x="947.600199454" y="-122.166832878"/>
      <point x="947.860985723" y="153.48417489" type="curve"/>
      <point x="947.860985723" y="605.996168381" type="line" smooth="yes"/>
      <point x="947.860985723" y="877.694152845"/>
      <point x="851.123687802" y="1014.38830569"/>
      <point x="622.776611379" y="1014.38830569" type="curve" smooth="yes"/>
      <point x="479.558970187" y="1014.38830569"/>
      <point x="375.123687802" y="959.041229267"/>
      <point x="305.472680034" y="844.341328994" type="curve"/>
      <point x="288.125603611" y="993.823588075" type="line"/>
      <point x="157.003831619" y="993.823588075" type="line"/>
      <point x="157.003831619" y="0.0" type="line"/>
      <point x="308.035481839" y="0.0" type="line"/>
      <point x="308.035481839" y="557.35473966" type="line" smooth="yes"/>
      <point x="308.035481839" y="600.480343271"/>
      <point x="311.035481839" y="639.737297921"/>
      <point x="314.425703338" y="679.735382112" type="curve"/>
      <point x="343.03356603" y="803.784274617"/>
      <point x="416.902214991" y="899.441029813"/>
      <point x="597.694152845" y="899.441029813" type="curve" smooth="yes"/>
      <point x="759.176411925" y="899.441029813"/>
      <point x="796.568549234" y="794.264617888"/>
      <point x="796.829335503" y="625.305847155" type="curve"/>
      <point x="796.829335503" y="104.266533697" type="line" smooth="yes"/>
      <point x="796.829335503" y="-97.9117940374"/>
      <point x="780.350908041" y="-124.737297921"/>
      <point x="617.0" y="-124.737297921" type="curve" smooth="yes"/>
      <point x="584.350908041" y="-124.737297921" type="line"/>
    </contour>
  </outline>
</glyph>
<glyph name="OE" format="1">
  <advance width="1849.55705438"/>
  <unicode hex="0152"/>
  <outline>
    <contour>
      <point x="924.778527189" y="997.199322906" type="move" name="top"/>
    </contour>
    <contour>
      <point x="782.441029813" y="-22.1744961159" type="curve" smooth="yes"/>
      <point x="886.352823851" y="-22.1744961159"/>
      <point x="1048.61935755" y="36.0019158094"/>
      <point x="1076.57046504" y="76.6097785009" type="curve"/>
      <point x="1076.57046504" y="-1.17449611589" type="line"/>
      <point x="1688.89072013" y="-1.17449611589" type="line"/>
      <point x="1701.71622402" y="127.425703338" type="line"/>
      <point x="1211.94919169" y="127.425703338" type="line"/>
      <point x="1211.94919169" y="637.395968927" type="line"/>
      <point x="1631.71622402" y="637.395968927" type="line"/>
      <point x="1631.71622402" y="762.51774092" type="line"/>
      <point x="1211.94919169" y="762.51774092" type="line"/>
      <point x="1211.94919169" y="1239.44677724" type="line"/>
      <point x="1666.58678879" y="1239.44677724" type="line"/>
      <point x="1680.89072013" y="1364.61169431" type="line"/>
      <point x="1076.57046504" y="1364.61169431" type="line"/>
      <point x="1076.57046504" y="1287.6097785" type="line"/>
      <point x="1013.74687697" y="1348.26270208"/>
      <point x="895.744961159" y="1392.56854923"/>
      <point x="756.74304535" y="1392.56854923" type="curve" smooth="yes"/>
      <point x="393.352823851" y="1392.56854923"/>
      <point x="138.22530443" y="1104.78619043"/>
      <point x="127.093953391" y="707.786190426" type="curve"/>
      <point x="127.093953391" y="271.782358807"/>
      <point x="338.0" y="-22.1744961159"/>
    </contour>
    <contour>
      <point x="784.876312198" y="101.251207222" type="curve" smooth="yes"/>
      <point x="404.429534957" y="105.947275877"/>
      <point x="276.604031073" y="372.125603611"/>
      <point x="276.604031073" y="709.699900273" type="curve"/>
      <point x="285.25695465" y="1041.09970082"/>
      <point x="469.87056477" y="1269.40363216"/>
      <point x="775.223388621" y="1269.40363216" type="curve" smooth="yes"/>
      <point x="897.74304535" y="1269.40363216"/>
      <point x="1005.17832773" y="1224.09970082"/>
      <point x="1076.57046504" y="1168.49183813" type="curve"/>
      <point x="1076.57046504" y="182.553222759" type="line"/>
      <point x="1037.74687697" y="162.557054377"/>
      <point x="895.525404157" y="101.251207222"/>
    </contour>
  </outline>
</glyph>
<glyph name="uni01C4" format="1">
  <advance width="2621.47076422"/>
  <unicode hex="01C4"/>
  <outline>
    <contour>
      <point x="1535.46884841" y="0.0" type="line"/>
      <point x="2440.94344426" y="0.0" type="line"/>
      <point x="2447.59636784" y="120.641428721" type="line"/>
      <point x="1706.62035482" y="120.641428721" type="line"/>
      <point x="2439.33558157" y="1245.35857128" type="line"/>
      <point x="2439.33558157" y="1345.6097785" type="line"/>
      <point x="1559.47076422" y="1345.6097785" type="line"/>
      <point x="1560.20997796" y="1225.79385366" type="line"/>
      <point x="2263.44102981" y="1225.79385366" type="line"/>
      <point x="1535.46884841" y="112.862901533" type="line"/>
    </contour>
    <contour>
      <point x="1971.56280181" y="1555.87822801" type="line"/>
      <point x="2166.73729792" y="1555.87822801" type="line"/>
      <point x="2313.4650168" y="1912.83699874" type="line"/>
      <point x="2216.3902215" y="1912.83699874" type="line"/>
      <point x="2071.56471761" y="1602.86481734" type="line"/>
      <point x="1919.38830569" y="1912.83699874" type="line"/>
      <point x="1824.83508293" y="1912.83699874" type="line"/>
    </contour>
    <contour>
      <point x="297.804429981" y="116.945360067" type="line"/>
      <point x="297.804429981" y="1228.75070859" type="line"/>
      <point x="513.423787529" y="1228.75070859" type="line" smooth="yes"/>
      <point x="886.474595843" y="1228.75070859"/>
      <point x="1108.39596893" y="1072.57429666"/>
      <point x="1108.39596893" y="669.521572538" type="curve" smooth="yes"/>
      <point x="1108.39596893" y="302.339413185"/>
      <point x="908.519656729" y="116.945360067"/>
      <point x="539.423787529" y="116.945360067" type="curve" smooth="yes"/>
    </contour>
    <contour>
      <point x="156.907962419" y="0.0" type="line"/>
      <point x="550.557054377" y="0.0" type="line" smooth="yes"/>
      <point x="988.382558262" y="0.0"/>
      <point x="1250.51007768" y="226.911794037"/>
      <point x="1250.51007768" y="673.782358807" type="curve" smooth="yes"/>
      <point x="1250.51007768" y="1144.78427462"/>
      <point x="961.772779761" y="1345.6097785"/>
      <point x="523.121771992" y="1345.6097785" type="curve" smooth="yes"/>
      <point x="156.907962419" y="1345.6097785" type="line"/>
    </contour>
  </outline>
</glyph>
<glyph name="uni0237" format="1">
  <advance width="404.080542725"/>
  <unicode hex="0237"/>
  <outline>
    <contour>
      <point x="202.170664497" y="728.86473861" type="move" name="top"/>
    </contour>
    <contour>
      <point x="-57.480343271" y="-415.140930086" type="line"/>
      <point x="-8.045060886" y="-415.140930086" type="line" smooth="yes"/>
      <point x="223.511993491" y="-415.140930086"/>
      <point x="274.03165022" y="-341.1917384"/>
      <point x="274.03165022" y="-105.762203443" type="curve" smooth="yes"/>
      <point x="274.03165022" y="1000.56663342" type="line"/>
      <point x="115.474595843" y="1000.56663342" type="line"/>
      <point x="115.474595843" y="-77.2329676674" type="line" smooth="yes"/>
      <point x="115.474595843" y="-232.146677514"/>
      <point x="140.696068654" y="-286.670165862"/>
      <point x="-31.8293355028" y="-286.670165862" type="curve" smooth="yes"/>
      <point x="-81.6999002729" y="-286.670165862" type="line"/>
    </contour>
  </outline>
</glyph>
<glyph name="caron" format="1">
  <advance width="742.572380852"/>
  <unicode hex="02C7"/>
  <outline>
    <contour>
      <point x="364.521572538" y="728.86473861" type="move" name="_top"/>
    </contour>
    <contour>
      <point x="267.303931346" y="1152.13901428" type="line"/>
      <point x="462.478427462" y="1152.13901428" type="line"/>
      <point x="609.206146336" y="1508.35857128" type="line"/>
      <point x="512.87056477" y="1508.35857128" type="line"/>
      <point x="367.305847155" y="1200.60403107" type="line"/>
      <point x="215.12943523" y="1508.35857128" type="line"/>
      <point x="119.83699874" y="1508.35857128" type="line"/>
    </contour>
  </outline>
</glyph>
<glyph name="breve" format="1">
  <advance width="704.791937854"/>
  <unicode hex="02D8"/>
  <outline>
    <contour>
      <point x="352.48225908" y="728.86473861" type="move" name="_top"/>
    </contour>
    <contour>
      <point x="350.74304535" y="1200.3154262" type="curve" smooth="yes"/>
      <point x="451.998084191" y="1200.3154262"/>
      <point x="568.998084191" y="1262.53115159"/>
      <point x="568.998084191" y="1417.44294562" type="curve"/>
      <point x="482.050808314" y="1417.44294562" type="line"/>
      <point x="482.050808314" y="1324.6567552"/>
      <point x="414.394053118" y="1279.95877073"/>
      <point x="350.74304535" y="1279.95877073" type="curve" smooth="yes"/>
      <point x="287.092037581" y="1279.95877073"/>
      <point x="224.131351039" y="1324.6567552"/>
      <point x="224.131351039" y="1417.44294562" type="curve"/>
      <point x="135.96643397" y="1417.44294562" type="line"/>
      <point x="135.96643397" y="1262.05272412"/>
      <point x="250.488006509" y="1200.3154262"/>
    </contour>
  </outline>
</glyph>
<glyph name="dotaccent" format="1">
  <advance width="344.376810834"/>
  <unicode hex="02D9"/>
  <outline>
    <contour>
      <point x="173.384474071" y="728.86473861" type="move" name="_top"/>
    </contour>
    <contour>
      <point x="103.953023305" y="1192.57238085" type="line"/>
      <point x="243.555138568" y="1192.57238085" type="line"/>
      <point x="243.555138568" y="1365.65483939" type="line"/>
      <point x="103.953023305" y="1365.65483939" type="line"/>
    </contour>
  </outline>
</glyph>
<glyph name="ring" format="1">
  <advance width="574.347076422"/>
  <unicode hex="02DA"/>
  <outline>
    <contour>
      <point x="288.868648961" y="728.86473861" type="move" name="_top"/>
    </contour>
    <contour>
      <point x="288.868648961" y="1225.74879278" type="curve" smooth="yes"/>
      <point x="233.347076422" y="1225.74879278"/>
      <point x="197.954939114" y="1266.53115159"/>
      <point x="197.954939114" y="1329.61935755" type="curve" smooth="yes"/>
      <point x="197.954939114" y="1387.22913605"/>
      <point x="245.478427462" y="1436.44677724"/>
      <point x="288.868648961" y="1436.44677724" type="curve" smooth="yes"/>
      <point x="337.954939114" y="1436.44677724"/>
      <point x="377.825503884" y="1386.75070859"/>
      <point x="377.825503884" y="1329.61935755" type="curve" smooth="yes"/>
      <point x="377.825503884" y="1271.96643397"/>
      <point x="332.780442998" y="1225.74879278"/>
    </contour>
    <contour>
      <point x="291.825503884" y="1167.62318917" type="curve" smooth="yes"/>
      <point x="370.558970187" y="1167.62318917"/>
      <point x="457.907962419" y="1223.66250262"/>
      <point x="457.907962419" y="1329.61935755" type="curve" smooth="yes"/>
      <point x="457.907962419" y="1431.61935755"/>
      <point x="373.298183918" y="1504.66058682"/>
      <point x="288.868648961" y="1504.66058682" type="curve" smooth="yes"/>
      <point x="208.395968927" y="1504.66058682"/>
      <point x="120.568549234" y="1438.53306739"/>
      <point x="120.568549234" y="1329.61935755" type="curve" smooth="yes"/>
      <point x="120.568549234" y="1223.66250262"/>
      <point x="207.178327735" y="1167.62318917"/>
    </contour>
  </outline>
</glyph>
<glyph name="uni0307" format="1">
  <advance width="318.680742179"/>
  <unicode hex="0307"/>
  <outline>
    <contour>
      <point x="155.643344531" y="728.86473861" type="move" name="_top"/>
    </contour>
    <contour>
      <point x="85.4726800336" y="1200.70756351" type="line"/>
      <point x="225.074795297" y="1200.70756351" type="line"/>
      <point x="225.074795297" y="1373.52923578" type="line"/>
      <point x="85.4726800336" y="1373.52923578" type="line"/>
    </contour>
  </outline>
</glyph>
<glyph name="uni0311" format="1">
  <advance width="654.568549234"/>
  <unicode hex="0311"/>
  <outline>
    <contour>
      <point x="108.876312198" y="1195.92137308" type="curve"/>
      <point x="194.823588075" y="1195.92137308" type="line"/>
      <point x="194.823588075" y="1289.40363216"/>
      <point x="251.694152845" y="1333.40554797"/>
      <point x="322.652923578" y="1333.40554797" type="curve" smooth="yes"/>
      <point x="392.394053118" y="1333.40554797"/>
      <point x="452.74304535" y="1288.9252047"/>
      <point x="452.74304535" y="1195.92137308" type="curve"/>
      <point x="540.429534957" y="1195.92137308" type="line"/>
      <point x="540.429534957" y="1353.57429666"/>
      <point x="428.345160613" y="1433.44486143"/>
      <point x="321.478427462" y="1433.44486143" type="curve" smooth="yes"/>
      <point x="215.568549234" y="1433.44486143"/>
      <point x="108.876312198" y="1354.05272412"/>
    </contour>
  </outline>
</glyph>
<glyph name="commaaccentcomb" format="1">
  <advance width="333.286689062"/>
  <unicode hex="0326"/>
  <outline>
    <contour>
      <point x="159.165874974" y="0.0" type="move" name="_bottom"/>
    </contour>
    <contour>
      <point x="53.4765116523" y="-615.262702079" type="line"/>
      <point x="142.380642452" y="-615.262702079" type="line"/>
      <point x="264.855238295" y="-166.570465043" type="line"/>
      <point x="135.25695465" y="-166.570465043" type="line"/>
    </contour>
  </outline>
</glyph>
<glyph name="tonos" format="1">
  <advance width="430.654839387"/>
  <unicode hex="0384"/>
  <outline>
    <contour>
      <point x="216.348034327" y="728.86473861" type="move" name="_top"/>
    </contour>
    <contour>
      <point x="216.478427462" y="484.478427462" type="curve" smooth="yes"/>
      <point x="296.303931346" y="484.478427462"/>
      <point x="335.347076422" y="543.303931346"/>
      <point x="335.347076422" y="602.607862692" type="curve" smooth="yes"/>
      <point x="335.347076422" y="661.911794037"/>
      <point x="296.303931346" y="720.737297921"/>
      <point x="216.478427462" y="720.737297921" type="curve" smooth="yes"/>
      <point x="137.652923578" y="720.737297921"/>
      <point x="97.3489922318" y="661.911794037"/>
      <point x="97.3489922318" y="602.607862692" type="curve" smooth="yes"/>
      <point x="97.3489922318" y="543.303931346"/>
      <point x="137.652923578" y="484.478427462"/>
    </contour>
  </outline>
</glyph>
<glyph name="Alpha" format="1">
  <advance width="1388.41321121"/>
  <unicode hex="0391"/>
  <outline>
    <contour>
      <point x="693.83699874" y="997.199322906" type="move" name="top"/>
    </contour>
    <contour>
      <point x="118.666334243" y="0.0" type="line"/>
      <point x="254.821672265" y="0.0" type="line"/>
      <point x="422.87056477" y="444.139014277" type="line"/>
      <point x="970.713310938" y="444.139014277" type="line"/>
      <point x="1133.93478375" y="0.0" type="line"/>
      <point x="1262.52540416" y="0.0" type="line"/>
      <point x="769.172580307" y="1347.17449612" type="line"/>
      <point x="610.887807054" y="1347.17449612" type="line"/>
    </contour>
    <contour>
      <point x="473.043145077" y="557.041229267" type="line"/>
      <point x="466.953023305" y="541.29243649"/>
      <point x="674.444861432" y="1163.97984464"/>
      <point x="688.442945623" y="1215.88780705" type="curve"/>
      <point x="704.919457275" y="1154.76220344"/>
      <point x="929.891638673" y="542.945360067"/>
      <point x="924.019158094" y="557.041229267" type="curve"/>
    </contour>
  </outline>
</glyph>
<glyph name="Beta" format="1">
  <advance width="1210.39596893"/>
  <unicode hex="0392"/>
  <outline>
    <contour>
      <point x="141.654839387" y="0.0" type="line"/>
      <point x="591.906046609" y="0.0" type="line" smooth="yes"/>
      <point x="918.778527189" y="0.0"/>
      <point x="1061.07671111" y="147.784274617"/>
      <point x="1061.07671111" y="380.433366576" type="curve" smooth="yes"/>
      <point x="1061.07671111" y="542.12943523"/>
      <point x="973.511993491" y="681.262702079"/>
      <point x="772.853322486" y="712.782358807" type="curve"/>
      <point x="1001.1236878" y="777.825503884"/>
      <point x="1010.85906991" y="955.960686542"/>
      <point x="1010.85906991" y="1018.48034327" type="curve" smooth="yes"/>
      <point x="1010.85906991" y="1248.08629015"/>
      <point x="847.731550493" y="1347.17449612"/>
      <point x="503.686489607" y="1347.17449612" type="curve" smooth="yes"/>
      <point x="141.654839387" y="1347.17449612" type="line"/>
    </contour>
    <contour>
      <point x="261.114108755" y="108.378726643" type="line"/>
      <point x="261.114108755" y="649.092037581" type="line"/>
      <point x="519.860985723" y="649.092037581" type="line" smooth="yes"/>
      <point x="789.131351039" y="649.092037581"/>
      <point x="932.746876968" y="587.264617888"/>
      <point x="932.746876968" y="383.909878228" type="curve" smooth="yes"/>
      <point x="932.746876968" y="195.339413185"/>
      <point x="807.829335503" y="108.378726643"/>
      <point x="567.25695465" y="108.378726643" type="curve" smooth="yes"/>
    </contour>
    <contour>
      <point x="261.114108755" y="761.213809574" type="line"/>
      <point x="261.114108755" y="1233.62127336" type="line"/>
      <point x="502.951107495" y="1233.62127336" type="line" smooth="yes"/>
      <point x="742.174496116" y="1233.62127336"/>
      <point x="879.441029813" y="1184.66250262"/>
      <point x="879.441029813" y="998.874396389" type="curve" smooth="yes"/>
      <point x="879.441029813" y="809.605946882"/>
      <point x="758.131351039" y="761.213809574"/>
      <point x="576.823588075" y="761.213809574" type="curve" smooth="yes"/>
    </contour>
  </outline>
</glyph>
<glyph name="Epsilon" format="1">
  <advance width="1093.27036532"/>
  <unicode hex="0395"/>
  <outline>
    <contour>
      <point x="546.395968927" y="997.199322906" type="move" name="top"/>
    </contour>
    <contour>
      <point x="138.348992232" y="0.0" type="line"/>
      <point x="940.302015536" y="0.0" type="line"/>
      <point x="947.302015536" y="120.945360067" type="line"/>
      <point x="279.984673525" y="120.945360067" type="line"/>
      <point x="279.984673525" y="636.395968927" type="line"/>
      <point x="885.996168381" y="636.395968927" type="line"/>
      <point x="885.996168381" y="756.951107495" type="line"/>
      <point x="279.984673525" y="756.951107495" type="line"/>
      <point x="279.984673525" y="1226.22913605" type="line"/>
      <point x="944.043145077" y="1226.22913605" type="line"/>
      <point x="949.868648961" y="1347.17449612" type="line"/>
      <point x="138.348992232" y="1347.17449612" type="line"/>
    </contour>
  </outline>
</glyph>
<glyph name="Mu" format="1">
  <advance width="1607.69415284"/>
  <unicode hex="039C"/>
  <outline>
    <contour>
      <point x="131.302015536" y="0.0" type="line"/>
      <point x="259.376810834" y="0.0" type="line"/>
      <point x="259.376810834" y="839.80343271" type="line"/>
      <point x="247.463100987" y="1172.8484936" type="line"/>
      <point x="287.335581566" y="1068.53689901" type="line"/>
      <point x="734.045060886" y="81.6078626916" type="line"/>
      <point x="869.035481839" y="81.6078626916" type="line"/>
      <point x="1303.52540416" y="1065.01532647" type="line"/>
      <point x="1343.8763122" y="1169.06613479" type="line"/>
      <point x="1336.39788474" y="844.281860172" type="line"/>
      <point x="1336.39788474" y="0.0" type="line"/>
      <point x="1462.1236878" y="0.0" type="line"/>
      <point x="1462.1236878" y="1347.17449612" type="line"/>
      <point x="1293.96451816" y="1347.17449612" type="line"/>
      <point x="797.821672265" y="243.633765484" type="line"/>
      <point x="306.635681293" y="1347.17449612" type="line"/>
      <point x="131.302015536" y="1347.17449612" type="line"/>
    </contour>
  </outline>
</glyph>
<glyph name="Omicron" format="1">
  <advance width="1534.48992232"/>
  <unicode hex="039F"/>
  <outline>
    <contour>
      <point x="758.697984464" y="96.6826579887" type="curve" smooth="yes"/>
      <point x="419.77469557" y="96.6826579887"/>
      <point x="261.204230527" y="338.819756456"/>
      <point x="261.204230527" y="666.782358807" type="curve" smooth="yes"/>
      <point x="261.204230527" y="1009.35473966"/>
      <point x="429.906046609" y="1250.23105186"/>
      <point x="759.697984464" y="1250.23105186" type="curve" smooth="yes"/>
      <point x="1089.96834978" y="1250.23105186"/>
      <point x="1255.23488348" y="1007.8763122"/>
      <point x="1255.23488348" y="666.782358807" type="curve" smooth="yes"/>
      <point x="1255.23488348" y="338.819756456"/>
      <point x="1097.62127336" y="96.6826579887"/>
    </contour>
    <contour>
      <point x="759.176411925" y="-21.1744961159" type="curve" smooth="yes"/>
      <point x="1174.09203758" y="-21.1744961159"/>
      <point x="1396.87056477" y="260.958770733"/>
      <point x="1396.87056477" y="665.825503884" type="curve" smooth="yes"/>
      <point x="1396.87056477" y="1088.73729792"/>
      <point x="1163.74304535" y="1367.87056477"/>
      <point x="760.176411925" y="1367.87056477" type="curve" smooth="yes"/>
      <point x="347.0" y="1367.87056477"/>
      <point x="121.046976695" y="1092.21572538"/>
      <point x="121.046976695" y="667.303931346" type="curve" smooth="yes"/>
      <point x="121.046976695" y="253.784274617"/>
      <point x="337.347076422" y="-21.1744961159"/>
    </contour>
  </outline>
</glyph>
<glyph name="Upsilon" format="1">
  <advance width="1291.71714256"/>
  <unicode hex="03A5"/>
  <outline>
    <contour>
      <point x="560.446777241" y="0.0" type="line"/>
      <point x="710.303931346" y="0.0" type="line"/>
      <point x="710.303931346" y="537.478427462" type="line"/>
      <point x="1179.34899223" y="1347.17449612" type="line"/>
      <point x="1036.06038736" y="1347.17449612" type="line"/>
      <point x="634.266533697" y="659.594452026" type="line"/>
      <point x="233.472680034" y="1347.17449612" type="line"/>
      <point x="90.9232888936" y="1347.17449612" type="line"/>
      <point x="560.446777241" y="533.478427462" type="line"/>
    </contour>
  </outline>
</glyph>
<glyph name="Phi" format="1">
  <advance width="1572.1428459"/>
  <unicode hex="03A6"/>
  <outline>
    <contour>
      <point x="702.223388621" y="0.0" type="line"/>
      <point x="858.74304535" y="0.0" type="line"/>
      <point x="858.74304535" y="155.478427462" type="line"/>
      <point x="1247.2665337" y="179.825503884"/>
      <point x="1448.70181608" y="408.303931346"/>
      <point x="1448.70181608" y="702.303931346" type="curve" smooth="yes"/>
      <point x="1448.70181608" y="1001.08629015"/>
      <point x="1236.70181608" y="1209.82550388"/>
      <point x="858.74304535" y="1234.3902215" type="curve"/>
      <point x="858.74304535" y="1358.91179404" type="line"/>
      <point x="702.223388621" y="1358.91179404" type="line"/>
      <point x="702.223388621" y="1234.3902215" type="line"/>
      <point x="329.178327735" y="1208.82550388"/>
      <point x="115.046976695" y="1000.30393135"/>
      <point x="115.046976695" y="702.303931346" type="curve" smooth="yes"/>
      <point x="115.046976695" y="409.521572538"/>
      <point x="316.003831619" y="182.303931346"/>
      <point x="702.223388621" y="155.478427462" type="curve"/>
    </contour>
    <contour>
      <point x="702.223388621" y="288.909878228" type="line"/>
      <point x="412.350908041" y="315.213809574"/>
      <point x="282.827419693" y="489.519656729"/>
      <point x="282.827419693" y="702.303931346" type="curve" smooth="yes"/>
      <point x="282.827419693" y="922.609778501"/>
      <point x="423.872480579" y="1076.17641193"/>
      <point x="702.223388621" y="1100.95877073" type="curve"/>
    </contour>
    <contour>
      <point x="858.74304535" y="288.909878228" type="curve"/>
      <point x="858.74304535" y="1100.95877073" type="line"/>
      <point x="1141.61552593" y="1077.17641193"/>
      <point x="1281.39980055" y="922.566633424"/>
      <point x="1281.39980055" y="702.303931346" type="curve" smooth="yes"/>
      <point x="1281.39980055" y="488.737297921"/>
      <point x="1152.79002204" y="314.213809574"/>
    </contour>
  </outline>
</glyph>
<glyph name="Chi" format="1">
  <advance width="1310.01532647"/>
  <unicode hex="03A7"/>
  <outline>
    <contour>
      <point x="128.446777241" y="0.0" type="line"/>
      <point x="279.170664497" y="0.0" type="line"/>
      <point x="644.131351039" y="549.395968927" type="line"/>
      <point x="1011.44102981" y="0.0" type="line"/>
      <point x="1158.20614634" y="0.0" type="line"/>
      <point x="713.511993491" y="678.303931346" type="line"/>
      <point x="1165.03548184" y="1347.17449612" type="line"/>
      <point x="1011.91945727" y="1347.17449612" type="line"/>
      <point x="639.868648961" y="807.211893764" type="line"/>
      <point x="267.686489607" y="1347.17449612" type="line"/>
      <point x="119.050808314" y="1347.17449612" type="line"/>
      <point x="571.923288894" y="677.390221499" type="line"/>
    </contour>
  </outline>
</glyph>
<glyph name="chi" format="1">
  <advance width="1185.75837182"/>
  <unicode hex="03C7"/>
  <outline>
    <contour>
      <point x="131.489922318" y="0.0" type="line"/>
      <point x="285.431450766" y="0.0" type="line"/>
      <point x="582.874396389" y="405.266533697" type="line"/>
      <point x="881.970265589" y="0.0" type="line"/>
      <point x="1037.69415284" y="0.0" type="line"/>
      <point x="661.821672265" y="502.519656729" type="line"/>
      <point x="1029.65100777" y="993.345160613" type="line"/>
      <point x="864.664418434" y="993.345160613" type="line"/>
      <point x="581.395968927" y="608.164917069" type="line"/>
      <point x="298.25695465" y="993.345160613" type="line"/>
      <point x="144.793853664" y="993.345160613" type="line"/>
      <point x="501.491838127" y="505.215725383" type="line"/>
    </contour>
  </outline>
</glyph>
<glyph name="iotadieresis" format="1">
  <advance width="782.520575268"/>
  <unicode hex="03CA"/>
  <outline>
    <contour>
      <point x="145.981760445" y="1145.61169431" type="line"/>
      <point x="270.495669746" y="1145.61169431" type="line"/>
      <point x="270.495669746" y="1327.03931346" type="line"/>
      <point x="145.981760445" y="1327.03931346" type="line"/>
    </contour>
    <contour>
      <point x="447.113111484" y="484.478427462" type="curve" smooth="yes"/>
      <point x="526.938615368" y="484.478427462"/>
      <point x="565.981760445" y="543.303931346"/>
      <point x="565.981760445" y="602.607862692" type="curve" smooth="yes"/>
      <point x="565.981760445" y="661.911794037"/>
      <point x="526.938615368" y="720.737297921"/>
      <point x="447.113111484" y="720.737297921" type="curve" smooth="yes"/>
      <point x="368.2876076" y="720.737297921"/>
      <point x="327.983676254" y="661.911794037"/>
      <point x="327.983676254" y="602.607862692" type="curve" smooth="yes"/>
      <point x="327.983676254" y="543.303931346"/>
      <point x="368.2876076" y="484.478427462"/>
    </contour>
    <contour>
      <point x="494.630852404" y="1145.61169431" type="line"/>
      <point x="619.623189166" y="1145.61169431" type="line"/>
      <point x="619.623189166" y="1327.03931346" type="line"/>
      <point x="494.630852404" y="1327.03931346" type="line"/>
    </contour>
  </outline>
</glyph>
<glyph name="uni0408" format="1">
  <advance width="654.315426202"/>
  <unicode hex="0408"/>
  <outline>
    <contour>
      <point x="161.619357548" y="-176.943444258" type="curve" smooth="yes"/>
      <point x="227.025902792" y="-173.247375604"/>
      <point x="284.322170901" y="-135.998084191"/>
      <point x="267.320255091" y="-58.5445622507" type="curve" smooth="yes"/>
      <point x="506.086290153" y="-58.5445622507"/>
      <point x="493.519656729" y="349.97517321"/>
      <point x="493.519656729" y="548.084453076" type="curve"/>
      <point x="418.413211211" y="1347.17449612" type="line"/>
      <point x="352.623189166" y="1030.05839282" type="line" smooth="yes"/>
      <point x="352.623189166" y="991.722811253"/>
      <point x="345.581959899" y="145.156256561"/>
      <point x="311.15817237" y="145.156256561" type="curve" smooth="yes"/>
      <point x="305.16008818" y="50.5368990132"/>
      <point x="297.424706068" y="-35.429534957"/>
      <point x="146.06421898" y="-33.6040310729" type="curve"/>
      <point x="158.630852404" y="-33.6040310729"/>
      <point x="97.4486930506" y="-89.8475750577"/>
      <point x="119.625104976" y="-92.8044299811" type="curve"/>
      <point x="127.70947932" y="-94.6299338652"/>
      <point x="153.795769473" y="-176.943444258"/>
    </contour>
  </outline>
</glyph>
<glyph name="uni0426" format="1">
  <advance width="1394.69990027"/>
  <unicode hex="0426"/>
  <outline>
    <contour>
      <point x="1120.0" y="-268.996168381" type="line"/>
      <point x="1259.55513857" y="-268.996168381" type="line"/>
      <point x="1259.55513857" y="147.48225908" type="line"/>
      <point x="1117.72771887" y="147.48225908" type="line"/>
      <point x="1117.72771887" y="1348.30584716" type="line"/>
      <point x="969.131351039" y="1348.30584716" type="line"/>
      <point x="969.131351039" y="125.253123032" type="line"/>
      <point x="323.647176149" y="125.253123032" type="line"/>
      <point x="323.647176149" y="1348.30584716" type="line"/>
      <point x="175.050808314" y="1348.30584716" type="line"/>
      <point x="175.050808314" y="0.0" type="line"/>
      <point x="1120.47842746" y="0.0" type="line"/>
    </contour>
  </outline>
</glyph>
<glyph name="uni0429" format="1">
  <advance width="1567.98850514"/>
  <unicode hex="0429"/>
  <outline>
    <contour>
      <point x="1334.38064245" y="-268.996168381" type="line"/>
      <point x="1472.45735356" y="-268.996168381" type="line"/>
      <point x="1472.45735356" y="147.48225908" type="line"/>
      <point x="1379.93961264" y="147.48225908" type="line"/>
      <point x="1379.93961264" y="1348.30584716" type="line"/>
      <point x="1246.12751942" y="1348.30584716" type="line"/>
      <point x="1246.12751942" y="128.949191686" type="line"/>
      <point x="838.333665757" y="128.949191686" type="line"/>
      <point x="838.333665757" y="1348.30584716" type="line"/>
      <point x="705.521572538" y="1348.30584716" type="line"/>
      <point x="705.521572538" y="128.949191686" type="line"/>
      <point x="308.123687802" y="128.949191686" type="line"/>
      <point x="308.123687802" y="1348.30584716" type="line"/>
      <point x="175.050808314" y="1348.30584716" type="line"/>
      <point x="175.050808314" y="0.0" type="line"/>
      <point x="1334.85906991" y="0.0" type="line"/>
    </contour>
  </outline>
</glyph>
<glyph name="uni042A" format="1">
  <advance width="1404.87439639"/>
  <unicode hex="042A"/>
  <outline>
    <contour>
      <point x="480.668250052" y="-3.95877073273" type="line"/>
      <point x="821.480343271" y="-3.95877073273" type="line" smooth="yes"/>
      <point x="1145.69606865" y="-3.95877073273"/>
      <point x="1311.52157254" y="118.821672265"/>
      <point x="1311.52157254" y="375.078626916" type="curve" smooth="yes"/>
      <point x="1311.52157254" y="631.857154105"/>
      <point x="1143.26844951" y="753.29243649"/>
      <point x="819.872480579" y="753.29243649" type="curve" smooth="yes"/>
      <point x="638.964518161" y="753.29243649" type="line"/>
      <point x="638.964518161" y="1350.39405312" type="line"/>
      <point x="156.448693051" y="1350.39405312" type="line"/>
      <point x="156.448693051" y="1223.3154262" type="line"/>
      <point x="480.668250052" y="1223.3154262" type="line"/>
    </contour>
    <contour>
      <point x="638.964518161" y="124.380642452" type="line"/>
      <point x="638.964518161" y="626.735382112" type="line"/>
      <point x="838.872480579" y="626.735382112" type="line" smooth="yes"/>
      <point x="1082.92328889" y="626.735382112"/>
      <point x="1149.22338862" y="531.604031073"/>
      <point x="1149.22338862" y="380.64526034" type="curve" smooth="yes"/>
      <point x="1149.22338862" y="216.03356603"/>
      <point x="1095.27036532" y="124.380642452"/>
      <point x="840.480343271" y="124.380642452" type="curve" smooth="yes"/>
    </contour>
  </outline>
</glyph>
<glyph name="uni0432" format="1">
  <advance width="1060.27036532"/>
  <unicode hex="0432"/>
  <outline>
    <contour>
      <point x="166.617441738" y="0.0" type="line"/>
      <point x="600.654839387" y="0.0" type="line" smooth="yes"/>
      <point x="881.662502624" y="0.0"/>
      <point x="965.654839387" y="146.048892505"/>
      <point x="965.654839387" y="285.694152845" type="curve"/>
      <point x="965.394053118" y="371.823588075"/>
      <point x="914.829335503" y="497.478427462"/>
      <point x="746.125603611" y="533.478427462" type="curve"/>
      <point x="885.827419693" y="574.217641193"/>
      <point x="932.001915809" y="643.825503884"/>
      <point x="932.001915809" y="751.001915809" type="curve" smooth="yes"/>
      <point x="932.001915809" y="874.211893764"/>
      <point x="849.574296662" y="995.302015536"/>
      <point x="605.570465043" y="995.302015536" type="curve" smooth="yes"/>
      <point x="166.617441738" y="995.302015536" type="line"/>
    </contour>
    <contour>
      <point x="320.476511652" y="107.164917069" type="line"/>
      <point x="320.476511652" y="459.61169431" type="line"/>
      <point x="610.872480579" y="459.61169431" type="line" smooth="yes"/>
      <point x="784.664418434" y="459.61169431"/>
      <point x="803.791937854" y="368.303931346"/>
      <point x="803.313510393" y="288.823588075" type="curve"/>
      <point x="803.313510393" y="175.77469557"/>
      <point x="768.662502624" y="107.164917069"/>
      <point x="591.652923578" y="107.164917069" type="curve" smooth="yes"/>
    </contour>
    <contour>
      <point x="320.476511652" y="574.431450766" type="line"/>
      <point x="320.476511652" y="882.746876968" type="line"/>
      <point x="590.305847155" y="882.746876968" type="line" smooth="yes"/>
      <point x="723.050808314" y="882.746876968"/>
      <point x="770.139014277" y="816.266533697"/>
      <point x="770.139014277" y="727.262702079" type="curve" smooth="yes"/>
      <point x="770.139014277" y="653.086290153"/>
      <point x="738.791937854" y="574.431450766"/>
      <point x="605.829335503" y="574.431450766" type="curve" smooth="yes"/>
    </contour>
  </outline>
</glyph>
<glyph name="uni0434" format="1">
  <advance width="1134.96451816"/>
  <unicode hex="0434"/>
  <outline>
    <contour>
      <point x="49.6979844636" y="-268.735382112" type="line"/>
      <point x="171.382558262" y="-268.735382112" type="line"/>
      <point x="169.03356603" y="0.0" type="line"/>
      <point x="920.96643397" y="0.0" type="line"/>
      <point x="916.746876968" y="-268.735382112" type="line"/>
      <point x="1044.780443" y="-268.735382112" type="line"/>
      <point x="1044.780443" y="103.076711106" type="line"/>
      <point x="974.480343271" y="103.076711106" type="line"/>
      <point x="974.480343271" y="995.302015536" type="line"/>
      <point x="367.536899013" y="995.302015536" type="line"/>
      <point x="268.874396389" y="385.438195465" type="line"/>
      <point x="242.480343271" y="257.100698089"/>
      <point x="213.048892505" y="146.721971447"/>
      <point x="140.74304535" y="103.076711106" type="curve"/>
      <point x="49.6979844636" y="103.076711106" type="line"/>
    </contour>
    <contour>
      <point x="304.860985723" y="102.380642452" type="line"/>
      <point x="341.253123032" y="126.114108755"/>
      <point x="394.123687802" y="261.633765484"/>
      <point x="423.647176149" y="440.020155364" type="curve"/>
      <point x="422.951107495" y="433.537896284"/>
      <point x="493.697984464" y="901.840830359"/>
      <point x="493.219557002" y="893.531151585" type="curve"/>
      <point x="819.664418434" y="893.531151585" type="line"/>
      <point x="819.664418434" y="102.380642452" type="line"/>
    </contour>
  </outline>
</glyph>
<glyph name="uni0436" format="1">
  <advance width="1424.17832773"/>
  <unicode hex="0436"/>
  <outline>
    <contour>
      <point x="45.0038316187" y="0.0" type="line"/>
      <point x="200.859069914" y="0.0" type="line"/>
      <point x="631.917541465" y="470.441029813" type="line"/>
      <point x="631.917541465" y="0.0" type="line"/>
      <point x="781.604031073" y="0.0" type="line"/>
      <point x="781.604031073" y="470.441029813" type="line"/>
      <point x="1214.61935755" y="0.0" type="line"/>
      <point x="1369.99616838" y="0.0" type="line"/>
      <point x="893.986589334" y="510.521572538" type="line"/>
      <point x="1363.34516061" y="995.302015536" type="line"/>
      <point x="1215.49183813" y="995.302015536" type="line"/>
      <point x="781.604031073" y="537.949191686" type="line"/>
      <point x="781.604031073" y="995.302015536" type="line"/>
      <point x="631.917541465" y="995.302015536" type="line"/>
      <point x="631.917541465" y="537.949191686" type="line"/>
      <point x="200.725803065" y="995.302015536" type="line"/>
      <point x="51.6548393869" y="995.302015536" type="line"/>
      <point x="521.491838127" y="510.521572538" type="line"/>
    </contour>
  </outline>
</glyph>
<glyph name="uni0437" format="1">
  <advance width="862.172580307"/>
  <unicode hex="0437"/>
  <outline>
    <contour>
      <point x="431.825503884" y="728.86473861" type="move" name="top"/>
    </contour>
    <contour>
      <point x="431.825503884" y="0.0" type="move" name="bottom"/>
    </contour>
    <contour>
      <point x="394.431450766" y="-18.0" type="curve" smooth="yes"/>
      <point x="618.300099727" y="-18.0"/>
      <point x="762.860985723" y="121.962602351"/>
      <point x="762.860985723" y="266.041229267" type="curve"/>
      <point x="763.078626916" y="377.12943523"/>
      <point x="705.77469557" y="479.521572538"/>
      <point x="570.204230527" y="522.478427462" type="curve"/>
      <point x="707.731550493" y="567.174496116"/>
      <point x="728.729634684" y="663.262702079"/>
      <point x="728.729634684" y="747.088205963" type="curve" smooth="yes"/>
      <point x="728.729634684" y="876.604031073"/>
      <point x="658.654839387" y="1022.26270208"/>
      <point x="399.651007768" y="1022.26270208" type="curve" smooth="yes"/>
      <point x="296.174496116" y="1022.26270208"/>
      <point x="180.221472811" y="996.609778501"/>
      <point x="96.0038316187" y="924.303931346" type="curve"/>
      <point x="112.266533697" y="885.125603611"/>
      <point x="135.523488348" y="818.137098467"/>
      <point x="135.523488348" y="818.137098467" type="curve"/>
      <point x="198.394053118" y="863.529235776"/>
      <point x="291.523488348" y="899.878228008"/>
      <point x="379.170664497" y="899.878228008" type="curve" smooth="yes"/>
      <point x="519.780442998" y="899.878228008"/>
      <point x="590.043145077" y="834.48417489"/>
      <point x="590.043145077" y="730.394053118" type="curve" smooth="yes"/>
      <point x="590.043145077" y="648.478427462"/>
      <point x="522.170664497" y="571.605946882"/>
      <point x="376.686489607" y="571.605946882" type="curve" smooth="yes"/>
      <point x="272.219557002" y="571.605946882" type="line"/>
      <point x="272.219557002" y="465.570465043" type="line"/>
      <point x="376.686489607" y="465.570465043" type="line" smooth="yes"/>
      <point x="552.651007768" y="465.570465043"/>
      <point x="608.172580307" y="372.435282385"/>
      <point x="608.172580307" y="278.38830569" type="curve" smooth="yes"/>
      <point x="608.172580307" y="174.647176149"/>
      <point x="516.776611379" y="98.77469557"/>
      <point x="391.821672265" y="98.77469557" type="curve" smooth="yes"/>
      <point x="300.303931346" y="98.77469557"/>
      <point x="191.87056477" y="137.166832878"/>
      <point x="137.219557002" y="181.64526034" type="curve"/>
      <point x="106.917541465" y="67.9117940374" type="line"/>
      <point x="192.092037581" y="-0.262702078522"/>
      <point x="298.872480579" y="-18.0"/>
    </contour>
  </outline>
</glyph>
<glyph name="uni043B" format="1">
  <advance width="1143.74687697"/>
  <unicode hex="043B"/>
  <outline>
    <contour>
      <point x="74.7018160823" y="-11.4333665757" type="curve" smooth="yes"/>
      <point x="352.748792778" y="-13.7823588075"/>
      <point x="392.043145077" y="183.444861432"/>
      <point x="445.266533697" y="475.317342011" type="curve" smooth="yes"/>
      <point x="522.144761705" y="883.442945623" type="line"/>
      <point x="817.876312198" y="883.442945623" type="line"/>
      <point x="817.876312198" y="-0.478427461684" type="line"/>
      <point x="971.474595843" y="-0.478427461684" type="line"/>
      <point x="971.474595843" y="995.302015536" type="line"/>
      <point x="397.15817237" y="995.302015536" type="line"/>
      <point x="302.538814823" y="500.83891455" type="line" smooth="yes"/>
      <point x="249.315426202" y="179.821672265"/>
      <point x="206.790022045" y="101.337497376"/>
      <point x="59.5273199664" y="104.121771992" type="curve"/>
      <point x="59.5273199664" y="104.121771992"/>
      <point x="76.7900220449" y="-11.6941528448"/>
    </contour>
  </outline>
</glyph>
<glyph name="uni043D" format="1">
  <advance width="1171.18790678"/>
  <unicode hex="043D"/>
  <outline>
    <contour>
      <point x="166.617441738" y="0.0" type="line"/>
      <point x="320.476511652" y="0.0" type="line"/>
      <point x="320.476511652" y="475.61169431" type="line"/>
      <point x="845.099700819" y="475.61169431" type="line"/>
      <point x="845.099700819" y="0.0" type="line"/>
      <point x="998.697984464" y="0.0" type="line"/>
      <point x="998.697984464" y="995.302015536" type="line"/>
      <point x="845.099700819" y="995.302015536" type="line"/>
      <point x="845.099700819" y="583.341328994" type="line"/>
      <point x="320.476511652" y="583.341328994" type="line"/>
      <point x="320.476511652" y="995.302015536" type="line"/>
      <point x="166.617441738" y="995.302015536" type="line"/>
    </contour>
  </outline>
</glyph>
<glyph name="uni043F" format="1">
  <advance width="1069.30584716"/>
  <unicode hex="043F"/>
  <outline>
    <contour>
      <point x="139.874396389" y="0.0" type="line"/>
      <point x="265.382558262" y="0.0" type="line"/>
      <point x="265.382558262" y="880.876312198" type="line"/>
      <point x="799.268449507" y="880.876312198" type="line"/>
      <point x="799.268449507" y="0.0" type="line"/>
      <point x="924.298183918" y="0.0" type="line"/>
      <point x="924.298183918" y="995.302015536" type="line"/>
      <point x="139.874396389" y="995.302015536" type="line"/>
    </contour>
  </outline>
</glyph>
<glyph name="uni0442" format="1">
  <advance width="912.623189166"/>
  <unicode hex="0442"/>
  <outline>
    <contour>
      <point x="374.923288894" y="0.0" type="line"/>
      <point x="531.131351039" y="0.0" type="line"/>
      <point x="531.131351039" y="877.656755196" type="line"/>
      <point x="812.523488348" y="877.656755196" type="line"/>
      <point x="812.523488348" y="995.302015536" type="line"/>
      <point x="94.6625026244" y="995.302015536" type="line"/>
      <point x="94.6625026244" y="877.656755196" type="line"/>
      <point x="374.923288894" y="877.656755196" type="line"/>
    </contour>
  </outline>
</glyph>
<glyph name="uni0443" format="1">
  <advance width="1025.70181608"/>
  <unicode hex="0443"/>
  <outline>
    <contour>
      <point x="513.350908041" y="728.86473861" type="move" name="top"/>
    </contour>
    <contour>
      <point x="100.699900273" y="-275.555138568" type="line"/>
      <point x="546.445779971" y="-297.731550493"/>
      <point x="585.748792778" y="-86.0633004409"/>
      <point x="636.221472811" y="56.4448614319" type="curve"/>
      <point x="992.478427462" y="993.823588075" type="line"/>
      <point x="832.446777241" y="993.823588075" type="line"/>
      <point x="583.313510393" y="260.555138568" type="line"/>
      <point x="237.651007768" y="993.823588075" type="line"/>
      <point x="70.7919378543" y="993.823588075" type="line"/>
      <point x="524.364318707" y="125.835082931" type="line"/>
      <point x="510.630852404" y="95.6835765274"/>
      <point x="528.316344741" y="-181.609778501"/>
      <point x="101.050808314" y="-148.345160613" type="curve"/>
    </contour>
  </outline>
</glyph>
<glyph name="uni0446" format="1">
  <advance width="1104.09203758"/>
  <unicode hex="0446"/>
  <outline>
    <contour>
      <point x="879.003831619" y="-268.735382112" type="line"/>
      <point x="1043.86864896" y="-268.735382112" type="line"/>
      <point x="1043.86864896" y="122.87056477" type="line"/>
      <point x="949.652923578" y="122.87056477" type="line"/>
      <point x="949.652923578" y="995.302015536" type="line"/>
      <point x="796.793853664" y="995.302015536" type="line"/>
      <point x="796.793853664" y="103.555138568" type="line"/>
      <point x="319.780442998" y="103.555138568" type="line"/>
      <point x="319.780442998" y="995.302015536" type="line"/>
      <point x="167.399800546" y="995.302015536" type="line"/>
      <point x="167.399800546" y="0.0" type="line"/>
      <point x="884.397884737" y="0.0" type="line"/>
    </contour>
  </outline>
</glyph>
<glyph name="uni0447" format="1">
  <advance width="1008.780443"/>
  <unicode hex="0447"/>
  <outline>
    <contour>
      <point x="682.431450766" y="0.0" type="line"/>
      <point x="835.551306949" y="0.0" type="line"/>
      <point x="835.551306949" y="995.302015536" type="line"/>
      <point x="682.431450766" y="995.302015536" type="line"/>
      <point x="682.431450766" y="456.975094478" type="line"/>
      <point x="683.823588075" y="469.286689062"/>
      <point x="589.472680034" y="478.166832878"/>
      <point x="499.652923578" y="478.166832878" type="curve" smooth="yes"/>
      <point x="355.221472811" y="478.166832878"/>
      <point x="284.694152845" y="521.114108755"/>
      <point x="284.694152845" y="757.647176149" type="curve" smooth="yes"/>
      <point x="284.694152845" y="995.302015536" type="line"/>
      <point x="131.0958692" y="995.302015536" type="line"/>
      <point x="131.0958692" y="748.390221499" type="line" smooth="yes"/>
      <point x="131.0958692" y="496.911794037"/>
      <point x="257.270365316" y="362.001915809"/>
      <point x="475.394053118" y="362.697984464" type="curve"/>
      <point x="589.045060886" y="362.697984464"/>
      <point x="697.699900273" y="365.433366576"/>
      <point x="682.431450766" y="354.339413185" type="curve"/>
    </contour>
  </outline>
</glyph>
<glyph name="uni0448" format="1">
  <advance width="1369.74687697"/>
  <unicode hex="0448"/>
  <outline>
    <contour>
      <point x="222.797685282" y="0.0" type="line"/>
      <point x="1210.82358807" y="0.0" type="line"/>
      <point x="1210.82358807" y="995.302015536" type="line"/>
      <point x="1064.09395339" y="995.302015536" type="line"/>
      <point x="1064.09395339" y="103.337497376" type="line"/>
      <point x="790.305847155" y="103.337497376" type="line"/>
      <point x="790.305847155" y="995.302015536" type="line"/>
      <point x="642.83699874" y="995.302015536" type="line"/>
      <point x="642.83699874" y="103.337497376" type="line"/>
      <point x="368.570465043" y="103.337497376" type="line"/>
      <point x="368.570465043" y="995.302015536" type="line"/>
      <point x="222.797685282" y="995.302015536" type="line"/>
    </contour>
  </outline>
</glyph>
<glyph name="uni0449" format="1">
  <advance width="1353.04314508"/>
  <unicode hex="0449"/>
  <outline>
    <contour>
      <point x="1125.82550388" y="-270.605946882" type="line"/>
      <point x="1290.25503884" y="-270.605946882" type="line"/>
      <point x="1290.25503884" y="121.87056477" type="line"/>
      <point x="1195.30009973" y="121.87056477" type="line"/>
      <point x="1195.30009973" y="995.302015536" type="line"/>
      <point x="1037.74304535" y="995.302015536" type="line"/>
      <point x="1037.74304535" y="103.555138568" type="line"/>
      <point x="780.696068654" y="103.555138568" type="line"/>
      <point x="780.696068654" y="995.302015536" type="line"/>
      <point x="623.139014277" y="995.302015536" type="line"/>
      <point x="623.139014277" y="103.555138568" type="line"/>
      <point x="324.956854923" y="103.555138568" type="line"/>
      <point x="324.956854923" y="995.302015536" type="line"/>
      <point x="168.0958692" y="995.302015536" type="line"/>
      <point x="168.0958692" y="0.0" type="line"/>
      <point x="1130.30584716" y="0.0" type="line"/>
    </contour>
  </outline>
</glyph>
<glyph name="uni044C" format="1">
  <advance width="946.219557002"/>
  <unicode hex="044C"/>
  <outline>
    <contour>
      <point x="166.617441738" y="0.0" type="line"/>
      <point x="524.431450766" y="0.0" type="line" smooth="yes"/>
      <point x="779.001915809" y="0.0"/>
      <point x="861.300099727" y="167.786190426"/>
      <point x="861.300099727" y="324.607862692" type="curve" smooth="yes"/>
      <point x="861.300099727" y="477.949191686"/>
      <point x="779.092037581" y="631.302015536"/>
      <point x="519.823588075" y="631.302015536" type="curve" smooth="yes"/>
      <point x="319.476511652" y="631.302015536" type="line"/>
      <point x="319.476511652" y="994.823588075" type="line"/>
      <point x="166.617441738" y="994.823588075" type="line"/>
    </contour>
    <contour>
      <point x="318.998084191" y="107.425703338" type="line"/>
      <point x="318.998084191" y="520.266533697" type="line"/>
      <point x="524.172580307" y="520.266533697" type="line" smooth="yes"/>
      <point x="652.654839387" y="520.266533697"/>
      <point x="702.568549234" y="422.001915809"/>
      <point x="702.568549234" y="327.12943523" type="curve" smooth="yes"/>
      <point x="702.568549234" y="234.38830569"/>
      <point x="660.74304535" y="107.425703338"/>
      <point x="530.651007768" y="107.425703338" type="curve" smooth="yes"/>
    </contour>
  </outline>
</glyph>
<glyph name="uni044E" format="1">
  <advance width="1405.09203758"/>
  <unicode hex="044E"/>
  <outline>
    <contour>
      <point x="859.127519421" y="-23.9137098467" type="curve" smooth="yes"/>
      <point x="1162.12943523" y="-23.9137098467"/>
      <point x="1269.55897019" y="221.825503884"/>
      <point x="1269.55897019" y="497.694152845" type="curve" smooth="yes"/>
      <point x="1269.55897019" y="784.998084191"/>
      <point x="1172.82550388" y="1020.69415284"/>
      <point x="862.823588075" y="1020.69415284" type="curve" smooth="yes"/>
      <point x="578.907962419" y="1020.69415284"/>
      <point x="454.605946882" y="812.300099727"/>
      <point x="441.303931346" y="550.862901533" type="curve"/>
      <point x="267.253123032" y="550.862901533" type="line"/>
      <point x="267.253123032" y="995.302015536" type="line"/>
      <point x="142.223388621" y="995.302015536" type="line"/>
      <point x="142.223388621" y="0.0" type="line"/>
      <point x="267.253123032" y="0.0" type="line"/>
      <point x="267.253123032" y="440.307762965" type="line"/>
      <point x="441.303931346" y="440.307762965" type="line"/>
      <point x="453.605946882" y="177.217641193"/>
      <point x="575.907962419" y="-23.9137098467"/>
    </contour>
    <contour>
      <point x="862.823588075" y="88.1649170691" type="curve" smooth="yes"/>
      <point x="646.16300126" y="88.1649170691"/>
      <point x="574.988505144" y="287.300099727"/>
      <point x="574.988505144" y="491.737297921" type="curve" smooth="yes"/>
      <point x="574.988505144" y="700.392137308"/>
      <point x="644.727718875" y="908.35473966"/>
      <point x="859.127519421" y="908.35473966" type="curve" smooth="yes"/>
      <point x="1083.52731997" y="908.35473966"/>
      <point x="1135.74496116" y="711.87056477"/>
      <point x="1135.74496116" y="495.694152845" type="curve" smooth="yes"/>
      <point x="1135.74496116" y="286.821672265"/>
      <point x="1075.57046504" y="88.1649170691"/>
    </contour>
  </outline>
</glyph>
<glyph name="uni0452" format="1">
  <advance width="1175.80534852"/>
  <unicode hex="0452"/>
  <outline>
    <contour>
      <point x="689.060387361" y="-259.392137308" type="line"/>
      <point x="753.146677514" y="-259.392137308" type="line" smooth="yes"/>
      <point x="1023.14667751" y="-259.392137308"/>
      <point x="1043.18982259" y="-137.001915809"/>
      <point x="1043.18982259" y="141.694152845" type="curve" smooth="yes"/>
      <point x="1043.18982259" y="402.911794037" type="line" smooth="yes"/>
      <point x="1043.18982259" y="664.911794037"/>
      <point x="937.711395129" y="809.215725383"/>
      <point x="703.711395129" y="809.215725383" type="curve" smooth="yes"/>
      <point x="564.666334243" y="809.215725383"/>
      <point x="458.274196935" y="745.605946882"/>
      <point x="376.142845895" y="641.343244804" type="curve"/>
      <point x="376.142845895" y="999.913709847" type="line"/>
      <point x="758.840830359" y="999.913709847" type="line"/>
      <point x="758.840830359" y="1101.99808419" type="line"/>
      <point x="376.142845895" y="1101.99808419" type="line"/>
      <point x="376.142845895" y="1372.3902215" type="line"/>
      <point x="228.319257821" y="1372.3902215" type="line"/>
      <point x="228.319257821" y="1101.99808419" type="line"/>
      <point x="142.362402897" y="1101.99808419" type="line"/>
      <point x="142.362402897" y="1000.17449612" type="line"/>
      <point x="228.319257821" y="1000.17449612" type="line"/>
      <point x="228.319257821" y="0.0" type="line"/>
      <point x="376.142845895" y="0.0" type="line"/>
      <point x="376.142845895" y="449.303931346" type="line"/>
      <point x="401.621273357" y="545.696068654"/>
      <point x="530.448693051" y="673.609778501"/>
      <point x="689.711395129" y="673.609778501" type="curve" smooth="yes"/>
      <point x="864.1917384" y="673.609778501"/>
      <point x="894.409379593" y="560.521572538"/>
      <point x="894.409379593" y="334.086290153" type="curve" smooth="yes"/>
      <point x="894.409379593" y="92.9117940374" type="line" smooth="yes"/>
      <point x="894.409379593" y="-103.001915809"/>
      <point x="875.495669746" y="-132.61169431"/>
      <point x="715.189822591" y="-132.61169431" type="curve" smooth="yes"/>
      <point x="678.538814823" y="-132.61169431" type="line"/>
    </contour>
  </outline>
</glyph>
<glyph name="uni045A" format="1">
  <advance width="1523.69990027"/>
  <unicode hex="045A"/>
  <outline>
    <contour>
      <point x="142.223388621" y="0.0" type="line"/>
      <point x="267.253123032" y="0.0" type="line"/>
      <point x="267.253123032" y="478.395968927" type="line"/>
      <point x="730.003831619" y="478.395968927" type="line"/>
      <point x="730.003831619" y="0.0" type="line"/>
      <point x="1056.77661138" y="0.0" type="line" smooth="yes"/>
      <point x="1312.04314508" y="0.0"/>
      <point x="1393.42761915" y="167.568549234"/>
      <point x="1393.42761915" y="325.782358807" type="curve" smooth="yes"/>
      <point x="1393.42761915" y="477.470764224"/>
      <point x="1303.95493911" y="633.390221499"/>
      <point x="1048.90604661" y="633.390221499" type="curve" smooth="yes"/>
      <point x="855.729634684" y="633.390221499" type="line"/>
      <point x="855.729634684" y="995.302015536" type="line"/>
      <point x="730.003831619" y="995.302015536" type="line"/>
      <point x="730.003831619" y="582.862901533" type="line"/>
      <point x="267.253123032" y="582.862901533" type="line"/>
      <point x="267.253123032" y="995.302015536" type="line"/>
      <point x="142.223388621" y="995.302015536" type="line"/>
    </contour>
    <contour>
      <point x="855.729634684" y="103.772779761" type="line"/>
      <point x="855.729634684" y="522.137098467" type="line"/>
      <point x="1080.51965673" y="522.137098467" type="line" smooth="yes"/>
      <point x="1208.52348835" y="522.137098467"/>
      <point x="1264.48034327" y="422.262702079"/>
      <point x="1264.48034327" y="327.825503884" type="curve" smooth="yes"/>
      <point x="1264.48034327" y="235.041229267"/>
      <point x="1215.69798446" y="103.772779761"/>
      <point x="1088.17258031" y="103.772779761" type="curve" smooth="yes"/>
    </contour>
  </outline>
</glyph>
<glyph name="uni045F" format="1">
  <advance width="1027.34899223"/>
  <unicode hex="045F"/>
  <outline>
    <contour>
      <point x="489.050808314" y="-241.166832878" type="line"/>
      <point x="588.604031073" y="-241.166832878" type="line"/>
      <point x="592.472680034" y="0.0" type="line"/>
      <point x="882.384474071" y="0.0" type="line"/>
      <point x="882.384474071" y="995.302015536" type="line"/>
      <point x="756.615525929" y="995.302015536" type="line"/>
      <point x="756.615525929" y="103.555138568" type="line"/>
      <point x="267.253123032" y="103.555138568" type="line"/>
      <point x="267.253123032" y="995.302015536" type="line"/>
      <point x="142.223388621" y="995.302015536" type="line"/>
      <point x="142.223388621" y="0.0" type="line"/>
      <point x="485.964518161" y="0.0" type="line"/>
    </contour>
  </outline>
</glyph>
<glyph name="quoteleft" format="1">
  <advance width="444.615525929"/>
  <unicode hex="2018"/>
  <outline>
    <contour>
      <point x="163.51774092" y="844.776611379" type="line"/>
      <point x="309.472680034" y="1055.57046504" type="line"/>
      <point x="299.788106236" y="1624.67974491" type="line"/>
      <point x="167.448693051" y="1415.14667751" type="line"/>
    </contour>
  </outline>
</glyph>
<glyph name="quoteright" format="1">
  <advance width="437.701816082"/>
  <unicode hex="2019"/>
  <outline>
    <contour>
      <point x="125.0958692" y="1022.01149486" type="line"/>
      <point x="212.521572538" y="1022.01149486" type="line"/>
      <point x="327.25695465" y="1444.52923578" type="line"/>
      <point x="205.615525929" y="1444.52923578" type="line"/>
    </contour>
  </outline>
</glyph>
<glyph name="dagger" format="1">
  <advance width="869.305847155"/>
  <unicode hex="2020"/>
  <outline>
    <contour>
      <point x="377.874396389" y="111.609778501" type="line"/>
      <point x="476.604031073" y="111.609778501" type="line"/>
      <point x="476.604031073" y="971.054639933" type="line"/>
      <point x="748.078626916" y="971.054639933" type="line"/>
      <point x="748.078626916" y="1044.60786269" type="line"/>
      <point x="474.255038841" y="1044.60786269" type="line"/>
      <point x="474.255038841" y="1434.66058682" type="line"/>
      <point x="377.874396389" y="1434.66058682" type="line"/>
      <point x="377.874396389" y="1044.60786269" type="line"/>
      <point x="108.701816082" y="1044.60786269" type="line"/>
      <point x="108.701816082" y="971.054639933" type="line"/>
      <point x="377.874396389" y="971.054639933" type="line"/>
    </contour>
  </outline>
</glyph>
<glyph name="daggerdbl" format="1">
  <advance width="935.790022045"/>
  <unicode hex="2021"/>
  <outline>
    <contour>
      <point x="415.572380852" y="140.366234516" type="line"/>
      <point x="512.953023305" y="140.366234516" type="line"/>
      <point x="512.953023305" y="445.142845895" type="line"/>
      <point x="795.348992232" y="445.142845895" type="line"/>
      <point x="795.348992232" y="561.572380852" type="line"/>
      <point x="512.953023305" y="561.572380852" type="line"/>
      <point x="513.431450766" y="987.187906781" type="line"/>
      <point x="802.045060886" y="987.187906781" type="line"/>
      <point x="802.045060886" y="1103.52923578" type="line"/>
      <point x="513.431450766" y="1103.52923578" type="line"/>
      <point x="513.431450766" y="1436.05272412" type="line"/>
      <point x="415.572380852" y="1436.05272412" type="line"/>
      <point x="415.572380852" y="1103.52923578" type="line"/>
      <point x="132.654839387" y="1103.52923578" type="line"/>
      <point x="132.654839387" y="987.187906781" type="line"/>
      <point x="415.572380852" y="987.187906781" type="line"/>
      <point x="415.572380852" y="561.572380852" type="line"/>
      <point x="127.697984464" y="561.572380852" type="line"/>
      <point x="127.697984464" y="445.142845895" type="line"/>
      <point x="415.572380852" y="445.142845895" type="line"/>
    </contour>
  </outline>
</glyph>
<glyph name="guilsinglleft" format="1">
  <advance width="574.572380852"/>
  <unicode hex="2039"/>
  <outline>
    <contour>
      <point x="324.178327735" y="168.305847155" type="line"/>
      <point x="427.123687802" y="168.305847155" type="line"/>
      <point x="230.345160613" y="532.87056477" type="line"/>
      <point x="433.123687802" y="892.825503884" type="line"/>
      <point x="327.221472811" y="892.825503884" type="line"/>
      <point x="117.139014277" y="532.87056477" type="line"/>
    </contour>
  </outline>
</glyph>
<glyph name="uni2074" format="1">
  <advance width="697.949191686"/>
  <unicode hex="2074"/>
  <outline>
    <contour>
      <point x="413.046976695" y="612.441029813" type="line"/>
      <point x="491.733466303" y="612.441029813" type="line"/>
      <point x="491.255038841" y="804.140930086" type="line"/>
      <point x="585.906046609" y="804.140930086" type="line"/>
      <point x="578.558970187" y="894.61169431" type="line"/>
      <point x="493.733466303" y="894.61169431" type="line"/>
      <point x="493.733466303" y="1396.83508293" type="line"/>
      <point x="400.045060886" y="1396.83508293" type="line"/>
      <point x="115.570465043" y="887.441029813" type="line"/>
      <point x="115.570465043" y="804.140930086" type="line"/>
      <point x="413.046976695" y="804.140930086" type="line"/>
    </contour>
    <contour>
      <point x="197.860985723" y="894.61169431" type="line"/>
      <point x="414.003831619" y="1257.85040941" type="line"/>
      <point x="412.525404157" y="894.61169431" type="line"/>
    </contour>
  </outline>
</glyph>
<glyph name="trademark" format="1">
  <advance width="1691.48800651"/>
  <unicode hex="2122"/>
  <outline>
    <contour>
      <point x="784.313510393" y="544.733466303" type="line"/>
      <point x="866.521572538" y="544.733466303" type="line"/>
      <point x="866.521572538" y="1271.33075268" type="line"/>
      <point x="1127.92328889" y="621.088205963" type="line"/>
      <point x="1198.44102981" y="621.088205963" type="line"/>
      <point x="1476.49566975" y="1269.24254671" type="line"/>
      <point x="1476.49566975" y="544.733466303" type="line"/>
      <point x="1561.61744174" y="544.733466303" type="line"/>
      <point x="1561.61744174" y="1364.48034327" type="line"/>
      <point x="1444.49566975" y="1364.48034327" type="line"/>
      <point x="1169.92137308" y="724.506246063" type="line"/>
      <point x="908.043145077" y="1364.48034327" type="line"/>
      <point x="784.313510393" y="1364.48034327" type="line"/>
    </contour>
    <contour>
      <point x="320.178327735" y="544.733466303" type="line"/>
      <point x="405.604031073" y="544.733466303" type="line"/>
      <point x="405.604031073" y="1287.3154262" type="line"/>
      <point x="651.694152845" y="1287.3154262" type="line"/>
      <point x="651.694152845" y="1364.48034327" type="line"/>
      <point x="81.8724805795" y="1364.48034327" type="line"/>
      <point x="81.3940531178" y="1287.3154262" type="line"/>
      <point x="320.178327735" y="1287.3154262" type="line"/>
    </contour>
  </outline>
</glyph>
<glyph name="summation" format="1">
  <advance width="1203.92328889"/>
  <unicode hex="2211"/>
  <outline>
    <contour>
      <point x="93.570465043" y="-329.786190426" type="line"/>
      <point x="1105.34899223" y="-329.786190426" type="line"/>
      <point x="1105.34899223" y="-192.96643397" type="line"/>
      <point x="255.208062146" y="-192.96643397" type="line"/>
      <point x="842.045060886" y="554.394053118" type="line"/>
      <point x="277.729634684" y="1279.31925782" type="line"/>
      <point x="1070.04506089" y="1279.31925782" type="line"/>
      <point x="1070.04506089" y="1407.44294562" type="line"/>
      <point x="114.527319966" y="1407.44294562" type="line"/>
      <point x="114.527319966" y="1322.31734201" type="line"/>
      <point x="665.574296662" y="546.654839387" type="line"/>
      <point x="93.570465043" y="-247.442945623" type="line"/>
    </contour>
  </outline>
</glyph>
<glyph name="approxequal" format="1">
  <advance width="1185.00383162"/>
  <unicode hex="2248"/>
  <outline>
    <contour>
      <point x="142.513909301" y="265.148593324" type="curve"/>
      <point x="151.119856183" y="283.925204703"/>
      <point x="226.992336763" y="322.705647701"/>
      <point x="248.116024564" y="322.705647701" type="curve" smooth="yes"/>
      <point x="283.765116523" y="408.454440479"/>
      <point x="334.200398908" y="453.983676254"/>
      <point x="423.247375604" y="446.16008818" type="curve"/>
      <point x="483.200398908" y="434.685492337"/>
      <point x="544.765116523" y="401.989423683"/>
      <point x="616.023986983" y="368.724805795" type="curve" smooth="yes"/>
      <point x="735.326002519" y="314.022989712"/>
      <point x="825.931949402" y="315.403632165"/>
      <point x="885.933865211" y="341.221472811" type="curve"/>
      <point x="1011.60019945" y="341.221472811"/>
      <point x="1018.219557" y="448.350908041"/>
      <point x="1031.52540416" y="584.366234516" type="curve"/>
      <point x="1012.22722024" y="561.41704283"/>
      <point x="931.615525929" y="530.373897754"/>
      <point x="913.882059626" y="530.373897754" type="curve" smooth="yes"/>
      <point x="895.668250052" y="446.842746168"/>
      <point x="845.799601092" y="396.399800546"/>
      <point x="760.45060886" y="405.788106236" type="curve"/>
      <point x="696.581959899" y="414.394053118"/>
      <point x="624.409379593" y="462.395968927"/>
      <point x="551.540730632" y="494.182159353" type="curve" smooth="yes"/>
      <point x="461.285691791" y="528.185990972"/>
      <point x="384.199401638" y="539.762203443"/>
      <point x="307.673997481" y="511.336500105" type="curve"/>
      <point x="199.009579047" y="511.336500105"/>
      <point x="156.558970187" y="404.859988453"/>
    </contour>
    <contour>
      <point x="139.557054377" y="628.713310938" type="curve"/>
      <point x="147.902214991" y="647.489922318"/>
      <point x="226.992336763" y="689.96643397"/>
      <point x="247.855238295" y="689.96643397" type="curve" smooth="yes"/>
      <point x="280.547475331" y="774.976013017"/>
      <point x="330.504330254" y="818.2876076"/>
      <point x="420.29052068" y="810.464019526" type="curve"/>
      <point x="479.982757716" y="798.989423683"/>
      <point x="542.286689062" y="767.77178249"/>
      <point x="613.545559521" y="734.507164602" type="curve" smooth="yes"/>
      <point x="730.629933865" y="678.326921058"/>
      <point x="820.018239555" y="679.446777241"/>
      <point x="884.455437749" y="705.525404157" type="curve"/>
      <point x="1005.68648961" y="705.525404157"/>
      <point x="1015.00191581" y="811.915625656"/>
      <point x="1029.0469767" y="948.670165862" type="curve"/>
      <point x="1010.27036532" y="925.460187907"/>
      <point x="928.658671006" y="891.720974176"/>
      <point x="910.925204703" y="891.720974176" type="curve" smooth="yes"/>
      <point x="892.45060886" y="806.711395129"/>
      <point x="844.625104976" y="757.442945623"/>
      <point x="758.754540206" y="767.352823851" type="curve"/>
      <point x="699.756456015" y="776.74112954"/>
      <point x="640.150509133" y="806.74112954"/>
      <point x="552.758371824" y="850.35473966" type="curve" smooth="yes"/>
      <point x="446.979844636" y="896.925204703"/>
      <point x="378.764119253" y="901.109279866"/>
      <point x="308.413211211" y="872.683576527" type="curve"/>
      <point x="200.488006509" y="872.683576527"/>
      <point x="152.862901533" y="765.467851144"/>
    </contour>
  </outline>
</glyph>
<glyph name="notequal" format="1">
  <advance width="1104.47268003"/>
  <unicode hex="2260"/>
  <outline>
    <contour>
      <point x="335.729634684" y="45.3921373084" type="line"/>
      <point x="470.557054377" y="327.178327735" type="line"/>
      <point x="980.860985723" y="327.178327735" type="line"/>
      <point x="976.253123032" y="431.345160613" type="line"/>
      <point x="516.553222759" y="431.345160613" type="line"/>
      <point x="671.733466303" y="727.139014277" type="line"/>
      <point x="980.860985723" y="727.139014277" type="line"/>
      <point x="973.77469557" y="833.217641193" type="line"/>
      <point x="718.208062146" y="833.217641193" type="line"/>
      <point x="825.425703338" y="1093.2665337" type="line"/>
      <point x="738.521572538" y="1105.6567552" type="line"/>
      <point x="608.172580307" y="833.217641193" type="line"/>
      <point x="113.347076422" y="833.217641193" type="line"/>
      <point x="120.172580307" y="726.660586815" type="line"/>
      <point x="561.219557002" y="726.660586815" type="line"/>
      <point x="410.996168381" y="431.605946882" type="line"/>
      <point x="113.868648961" y="431.605946882" type="line"/>
      <point x="120.172580307" y="327.178327735" type="line"/>
      <point x="358.825503884" y="327.178327735" type="line"/>
      <point x="250.825503884" y="61.5215725383" type="line"/>
    </contour>
  </outline>
</glyph>
<glyph name="greaterequal" format="1">
  <advance width="1123.52731997"/>
  <unicode hex="2265"/>
  <outline>
    <contour>
      <point x="149.697984464" y="217.176411925" type="line"/>
      <point x="980.174496116" y="660.960686542" type="line"/>
      <point x="980.174496116" y="732.086290153" type="line"/>
      <point x="153.654839387" y="1200.65483939" type="line"/>
      <point x="153.654839387" y="1076.83699874" type="line"/>
      <point x="870.189822591" y="696.262702079" type="line"/>
      <point x="149.697984464" y="340.037397649" type="line"/>
    </contour>
    <contour>
      <point x="120.043145077" y="7.91370984674" type="line"/>
      <point x="999.697984464" y="7.91370984674" type="line"/>
      <point x="999.697984464" y="121.300099727" type="line"/>
      <point x="120.043145077" y="120.821672265" type="line"/>
    </contour>
  </outline>
</glyph>
<glyph name="lozenge" format="1">
  <advance width="1091.04506089"/>
  <unicode hex="25CA"/>
  <outline>
    <contour>
      <point x="489.652923578" y="-44.6960686542" type="line"/>
      <point x="581.605946882" y="-44.6960686542" type="line"/>
      <point x="970.951107495" y="706.178327735" type="line"/>
      <point x="589.127519421" y="1455.35665547" type="line"/>
      <point x="495.174496116" y="1455.35665547" type="line"/>
      <point x="106.872480579" y="703.699900273" type="line"/>
    </contour>
    <contour>
      <point x="533.651007768" y="80.0335660298" type="curve"/>
      <point x="420.25695465" y="283.255038841"/>
      <point x="315.733466303" y="497.825503884"/>
      <point x="203.600199454" y="705.699900273" type="curve"/>
      <point x="317.255038841" y="912.835082931"/>
      <point x="430.474595843" y="1120.70947932"/>
      <point x="544.868648961" y="1325.40937959" type="curve"/>
      <point x="653.305847155" y="1117.01341067"/>
      <point x="764.046976695" y="910.356655469"/>
      <point x="874.701816082" y="703.960686542" type="curve"/>
      <point x="761.046976695" y="496.086290153"/>
      <point x="646.827419693" y="286.733466303"/>
    </contour>
  </outline>
</glyph>
<glyph name=".notdef" format="1">
  <advance width="903.508161873"/>
  <outline>
    <contour>
      <point x="180.345160613" y="203.719976905" type="line"/>
      <point x="180.345160613" y="788.409458325" type="line"/>
      <point x="723.902214991" y="788.409458325" type="line"/>
      <point x="723.902214991" y="203.719976905" type="line"/>
    </contour>
    <contour>
      <point x="90.1725803065" y="112.808182868" type="line"/>
      <point x="814.074795297" y="112.808182868" type="line"/>
      <point x="814.074795297" y="879.321252362" type="line"/>
      <point x="90.1725803065" y="879.321252362" type="line"/>
    </contour>
  </outline>
</glyph>
